<?xml version="1.0" encoding="utf-8"?>
<!-- Generator: Adobe Illustrator 24.0.1, SVG Export Plug-In . SVG Version: 6.00 Build 0)  -->
<svg version="1.1" id="_x3C_Layer_x3E_" xmlns="http://www.w3.org/2000/svg" xmlns:xlink="http://www.w3.org/1999/xlink" x="0px"
	 y="0px" viewBox="0 0 2760 1840" style="enable-background:new 0 0 2760 1840;" xml:space="preserve">
<style type="text/css">
	.st0{opacity:0.5;fill:#F1F0FF;}
	.st1{fill:#F1F0FF;}
	.st2{fill:#FFC290;}
	.st3{fill:#FBE9DD;}
	.st4{fill:#FFA051;}
	.st5{fill:#FFB250;}
	.st6{fill:#E29417;}
	.st7{fill:#FF9347;}
	.st8{fill:#43466B;}
	.st9{fill:#FF6A51;}
	.st10{fill:#736DDC;}
	.st11{fill:#8A80EE;}
	.st12{fill:#353659;}
	.st13{fill:#FFFFFF;}
	.st14{fill:#FBC7B1;}
	.st15{fill:#FC9171;}
	.st16{fill:#F69582;}
	.st17{fill:#262F36;}
	.st18{fill:#FFBF61;}
	.st19{fill:#FFB24A;}
	.st20{fill:#2A2C4B;}
	.st21{fill:#C1B2FF;}
	.st22{fill:#6F69D9;}
	.st23{fill:#484B73;}
	.st24{fill:#D5CDFF;}
	.st25{fill:#D26C51;}
	.st26{fill:#E8775A;}
	.st27{fill:#E79480;}
	.st28{fill:#F64F3E;}
	.st29{opacity:0.6;fill:#F64F3E;}
	.st30{fill:#F25242;}
	.st31{fill:#E04B3E;}
	.st32{fill:#6161B8;}
	.st33{fill:#ECEAFF;}
	.st34{fill:#F25444;}
	.st35{fill:#9BDCA0;}
	.st36{fill:#3B4169;}
	.st37{fill:#C56146;}
	.st38{opacity:0.3;}
	.st39{opacity:0.5;fill:#FFFFFF;}
</style>
<g>
	<path class="st0" d="M324.78,1478.61h2298.03c0,0,157.63-479.95-185.17-459.01c-209.76,12.81-95.29-517.15-653.61-493.8
		c-438.36,18.33-408.85,321.85-577.71,112.41C835.18,177.86,239.76,488.65,312.67,815.46
		C371.36,1078.53,55.38,1273.24,324.78,1478.61z"/>
	<g>
		<g>
			<g>
				<path class="st1" d="M2653.57,1484.58c0,65.78-569.79,119.1-1272.66,119.1c-187.5,0-365.52-3.79-525.79-10.61
					c-1.3-0.05-2.61-0.11-3.9-0.17c-41.62-1.78-82.03-3.77-121.09-5.94c-1.43-0.08-2.87-0.16-4.29-0.24
					c-370.05-20.83-617.6-58.77-617.6-102.13c0-65.77,569.79-119.09,1272.66-119.09S2653.57,1418.81,2653.57,1484.58z"/>
			</g>
		</g>
	</g>
	<g>
		<g>
			<g>
				<polygon class="st2" points="1711.01,641.81 1694.19,619.49 1661.48,679.17 1737.88,661 1738.71,628.91 				"/>
			</g>
			<g>
				<polygon class="st3" points="1720.99,617.91 1661.48,679.17 1819.97,599.33 				"/>
			</g>
			<g>
				<polygon class="st3" points="1661.48,679.17 1694.19,619.49 1679.8,577.18 				"/>
			</g>
		</g>
		<g>
			<g>
				<path class="st2" d="M1865.21,658.78c-0.22,0.82,1.07,1.03,1.29,0.22c7.83-28.71,31.14-48.31,57.39-60.5
					c-0.07-0.46-0.13-0.91-0.19-1.37C1896.8,609.51,1873.2,629.48,1865.21,658.78z"/>
				<path class="st2" d="M1893.69,509.62c-15.37-7.78-32.86-11.41-50.05-10.47c-41.07,2.25-76.57,32.44-87.13,71.91
					c-0.22,0.82,1.08,1.03,1.29,0.22c11.46-42.82,52.23-73.35,96.68-70.81c20.34,1.16,40.38,8.67,56.06,21.75
					c9.32,7.78,16.38,17.38,16.96,29.87c0.48,10.41-2.54,20.61-3.8,30.87c-0.59,4.78-0.58,9.54,0.01,14.17
					c0.34-0.16,0.69-0.31,1.03-0.47c-1.6-16.71,6.52-33.19,3.48-49.96C1925.07,529.36,1908.49,517.11,1893.69,509.62z"/>
				<path class="st2" d="M1946.69,589.87c18.51-5.58,45.58-12.31,59.2,6.27c16.42,22.41-15.37,41.16-34.66,41.6
					c-21.22,0.49-40.03-14.26-45.38-34.71c-0.44-1.66-0.74-3.32-0.96-4.98c-0.33,0.15-0.66,0.3-1,0.45
					c1.92,12.53,8.24,23.96,19.1,31.86c14.51,10.56,34.54,11.38,50.25,2.93c14.41-7.75,24.85-24.52,12.78-39.11
					c-12.64-15.27-34.08-12.19-51.1-7.94c-10.09,2.52-20.35,5.97-30.2,10.42c0.04,0.46,0.09,0.93,0.15,1.39
					C1932.03,594.79,1939.38,592.07,1946.69,589.87z"/>
				<path class="st2" d="M1923.89,598.5c0.33-0.15,0.66-0.3,1-0.45c-0.06-0.46-0.11-0.93-0.15-1.39c-0.34,0.16-0.69,0.31-1.03,0.47
					C1923.76,597.59,1923.82,598.04,1923.89,598.5z"/>
			</g>
		</g>
	</g>
	<g>
		<polygon class="st4" points="2199.68,709.17 2130.02,682.92 1453.55,908.74 1472.01,954.99 		"/>
		<polygon class="st5" points="2603.57,654.26 2532.93,625.12 2079.81,534.27 2150.44,563.42 		"/>
		<g>
			<g>
				<polygon class="st6" points="1380.9,1148.85 1250.73,809.51 289.18,1112.08 242.81,964.7 1342.94,618.52 1472.01,954.99 
					2263.75,687.53 2313.2,833.9 				"/>
			</g>
			<g>
				<g>
					<polygon class="st6" points="2298.37,1001.31 2603.57,654.26 2150.44,563.42 					"/>
				</g>
			</g>
		</g>
		<polygon class="st5" points="242.81,964.7 172.17,935.56 218.55,1082.93 289.18,1112.08 		"/>
		<polygon class="st4" points="1272.3,589.37 1342.94,618.52 242.81,964.7 172.17,935.56 		"/>
		<polygon class="st4" points="1380.9,1148.85 1310.26,1119.7 1197.68,826.2 1250.73,809.51 		"/>
		<polygon class="st7" points="2150.44,563.42 2079.81,534.27 2130.02,682.92 2199.68,709.17 		"/>
		<polygon class="st4" points="2298.37,1001.31 2227.74,972.16 2194.57,873.97 2249.13,855.54 		"/>
	</g>
	<g>
		<g>
			<g>
				<path class="st8" d="M2239.2,261.44c-0.61-1.88-3.15-2.49-4.97-1.72c-1.82,0.77-3.04,2.47-4.13,4.11
					c0.12-0.93-0.71-1.8-1.63-1.98c-0.93-0.17-1.88,0.22-2.63,0.78c-1.72,1.29-2.64,3.57-2.29,5.69c0.35,2.12,1.96,3.98,4,4.65
					c-2.81,1.07-12.11,9.88-8.5,23.78c6.05,23.33,29.27,31.67,41.82,26.04c2.68-1.21-0.9-27.37,12.15-34.16
					c16.59-8.64,9.96-23.24,3.28-28.39C2266.14,252.41,2250.6,252.4,2239.2,261.44z"/>
			</g>
		</g>
		<g>
			<path class="st9" d="M2277.71,353.11c0,0,21.91,7.8,25.09,66.7c2.48,46.09,5.9,51.21,5.9,51.21l-35.29-22.66L2277.71,353.11z"/>
		</g>
		<g>
			<path class="st10" d="M2335.34,734.81c-0.11,3.32-0.23,6.56-0.24,9.57c0,1.79,1.25,3.35,3.01,3.72
				c4.45,0.92,9.09,0.89,13.66,0.85c14.83-0.13,29.67-0.27,44.51-0.41c1.53-0.01,3.23-0.09,4.09-1.61c0.54-0.96,0.48-2.15-0.02-3.14
				c-1.02-1.99-3.09-2.84-5.07-3.59c-9.6-3.65-20.02-7.33-27.2-14.3c-0.23-0.22-0.45-0.45-0.67-0.67c-1.51-1.56-2.86-3.28-4.02-5.19
				c-0.89-1.48-1.64-3.07-2.07-4.74c-0.15-0.57-0.26-1.15-0.32-1.75c-0.03-0.23-0.05-0.46-0.06-0.69l-5.24-0.27l-1.51-0.08
				l-20.24-1.06c1.34,5.13,1.59,11.15,1.52,17.19C2335.46,730.71,2335.4,732.77,2335.34,734.81z"/>
		</g>
		<g>
			<path class="st11" d="M2306.29,736.55c-0.11,3.32-0.23,6.56-0.24,9.57c0,1.79,1.25,3.35,3.01,3.71
				c4.45,0.92,9.09,0.89,13.66,0.85c14.83-0.13,29.67-0.27,44.51-0.41c1.53-0.01,3.23-0.09,4.09-1.61c0.54-0.97,0.48-2.15-0.02-3.14
				c-1.02-1.99-3.09-2.84-5.07-3.59c-9.6-3.65-20.02-7.33-27.2-14.3c-0.23-0.22-0.45-0.45-0.67-0.67c-1.51-1.56-2.86-3.28-4.02-5.19
				c-0.89-1.48-1.64-3.07-2.07-4.74c-0.15-0.57-0.26-1.16-0.32-1.75c-0.03-0.23-0.05-0.46-0.06-0.69l-5.24-0.27l-1.51-0.08
				l-20.24-1.06c1.34,5.14,1.59,11.15,1.52,17.19C2306.42,732.45,2306.36,734.51,2306.29,736.55z"/>
		</g>
		<g>
			<path class="st12" d="M2268.17,496.78c0,0,120.25,7.56,131.63,43.73c11.38,36.17-25.28,173.43-25.28,173.43
				s-12.2,5.03-34.41-3.64l13.39-118.74c0,0-126.18-10.82-139.51-43.63C2193.98,498.7,2268.17,496.78,2268.17,496.78z"/>
		</g>
		<g>
			<path class="st8" d="M2242.66,504.21c0,0,125.9,5.91,137.28,42.08c11.38,36.17-38.99,176.97-38.99,176.97s-19.69,4.56-41.91-4.11
				c0,0,14.87-103.36,24.33-127.55c4.51-11.52-134.13,15.75-150.46-34.82C2156.6,506.2,2242.66,504.21,2242.66,504.21z"/>
		</g>
		<g>
			<path class="st9" d="M2166.09,399.4c0.42-51.92,49.48-61.73,87.81-54.83c37.79,6.8,49.28,28.57,29.74,85.59
				c-16.83,49.11,0.17,58.75-38.77,58.43C2205.92,488.27,2165.66,451.32,2166.09,399.4z"/>
		</g>
		<g>
			<path class="st9" d="M2177.08,391.72c0,0-21.86,92.65-12.24,160.96c0,0,26.88,12.12,57.78-23.01
				c32.01-36.38,63.45-28.38,63.45-28.38s-12.58-22.78,3.9-109.35C2297.62,351.77,2177.08,391.72,2177.08,391.72z"/>
		</g>
		<g>
			<g>
				<path class="st9" d="M2237.8,489.07c0,0-55.16-0.56-78.15-3.67c-20.58-2.78-28.91-5.06-35.68-19.42
					c-6.77-14.36-11.09-35.15,61.84-112.73c21.73-23.11,64.39-13.28,74.61-5c10.22,8.29-31.58,29.41-39.86,39.63l-43.01,53.05
					l60.64,0.49c13.16,0.11,23.73,10.86,23.63,24.02C2261.71,478.6,2250.95,489.18,2237.8,489.07z"/>
			</g>
		</g>
		<g>
			<path class="st12" d="M2202.25,484.97c-1.11,0.59-2.15,0.85-3.06,0.72c0,0,0,0-0.01,0c-0.24-0.04-0.48-0.1-0.7-0.19
				c-1.39-0.57-2.22-2.16-2.49-4.46c-0.51-4.21,0.84-10.78,3.91-17.64c1.02-2.27,2.14-4.39,3.3-6.31
				c4.28-7.01,9.24-11.26,12.35-9.99c3.96,1.62,3.41,11.55-1.33,22.14C2210.76,476.98,2206.07,482.95,2202.25,484.97z"/>
		</g>
		<g>
			<g>
				<path class="st13" d="M2160.27,432.49c17.97,5.9,35.94,11.56,54.67,14.51c0.34,0.05,0.49-0.47,0.15-0.52
					c-18.73-2.94-36.7-8.61-54.67-14.51C2160.09,431.86,2159.94,432.38,2160.27,432.49L2160.27,432.49z"/>
			</g>
		</g>
		<g>
			<g>
				<path class="st13" d="M2186,424.63c-2.53,4.41-5.06,8.83-7.58,13.24c-0.17,0.3,0.29,0.58,0.47,0.28
					c2.53-4.41,5.06-8.83,7.58-13.24C2186.64,424.61,2186.17,424.33,2186,424.63L2186,424.63z"/>
			</g>
		</g>
		<g>
			<g>
				<path class="st13" d="M2174.89,489.27c6.55,0.39,13.09,0.4,19.64,0.03c0.35-0.02,0.35-0.56,0-0.54
					c-6.55,0.37-13.1,0.36-19.64-0.03C2174.54,488.71,2174.54,489.25,2174.89,489.27L2174.89,489.27z"/>
			</g>
		</g>
		<g>
			<path class="st14" d="M2248.15,359.41c-17.01-6.25-20.22-17.12-16.94-21.87c12.87-18.65,16.77-34.52,16.8-34.57l5.97,6.28
				l1.23,1.29l10.68,11.24c0,0-0.38,0.9-0.95,2.35c-0.43,1.09-0.97,2.48-1.56,4.06c-0.56,1.5-1.15,3.15-1.73,4.83
				c-0.36,1.04-0.71,2.1-1.04,3.14c-0.3,0.94-0.58,1.87-0.82,2.76c-0.65,2.32-1.09,4.4-1.16,5.87c-0.03,0.76,0.07,1.79,0.12,2.91
				C2258.97,352.33,2261.24,364.23,2248.15,359.41z"/>
		</g>
		<g>
			<path class="st15" d="M2258.72,347.71c-3.92-3.52-12.23-12.64-9.91-24.93c0.03-0.16,0.06-0.32,0.09-0.48c0,0,0.5,0.64,1.31,1.67
				c2.33,2.95,7.24,9.05,10.37,12.2c-0.3,0.94-0.58,1.87-0.82,2.76c-0.65,2.32-1.09,4.4-1.16,5.87
				C2258.57,345.56,2258.67,346.59,2258.72,347.71z"/>
		</g>
		<g>
			<path class="st14" d="M2242.12,305.49c0,0-0.68,32.42,26.5,33.31c26.73,0.88,22.64-19.12,20.12-47.47
				C2287.22,274.22,2241.85,254.4,2242.12,305.49z"/>
		</g>
		<g>
			<g>
				<path class="st15" d="M2244.4,319.94c2.86,6.72,6.43,13.03,12.25,17.63c0.36,0.29,0.85-0.24,0.48-0.53
					c-5.73-4.52-9.23-10.7-12.05-17.32C2244.9,319.3,2244.22,319.52,2244.4,319.94L2244.4,319.94z"/>
			</g>
		</g>
		<g>
			<g>
				<path class="st16" d="M2265.52,319.78c2.7,4.15,7.25,6.71,12.22,5.2c0.37-0.11,0.22-0.69-0.15-0.58
					c-4.72,1.44-8.98-0.98-11.54-4.91C2265.83,319.16,2265.31,319.45,2265.52,319.78L2265.52,319.78z"/>
			</g>
		</g>
		<g>
			<g>
				<path class="st16" d="M2273.99,303.04c-0.91,2.01-0.63,4.06-0.17,6.17c0.5,2.35,3.06,7.57-0.7,8.26
					c-0.38,0.07-0.22,0.65,0.15,0.58c1.84-0.33,2.91-0.12,2.68-2.3c-0.41-3.95-3.22-8.47-1.45-12.4
					C2274.67,303,2274.15,302.69,2273.99,303.04L2273.99,303.04z"/>
			</g>
		</g>
		<g>
			<path class="st15" d="M2269.76,299.2c0.24,1.57-2.26,2.29-5.41,2.76s-5.75,0.52-5.98-1.04c-0.24-1.57,2.04-3.76,5.19-4.23
				C2266.7,296.21,2269.53,297.64,2269.76,299.2z"/>
		</g>
		<g>
			<path class="st15" d="M2287.68,300.03c-0.06,1.58-2.84,1.81-6.25,1.68c-3.41-0.14-6.16-0.59-6.1-2.17
				c0.06-1.58,2.9-3.3,6.31-3.16C2285.05,296.51,2287.74,298.45,2287.68,300.03z"/>
		</g>
		<g>
			<path class="st17" d="M2267.52,308.58c0.04,1.39-0.71,2.54-1.68,2.57c-0.97,0.03-1.8-1.07-1.84-2.46
				c-0.04-1.39,0.71-2.54,1.68-2.57C2266.66,306.09,2267.48,307.19,2267.52,308.58z"/>
		</g>
		<g>
			<path class="st17" d="M2280.71,307.3c0.04,1.39-0.71,2.54-1.68,2.57c-0.97,0.03-1.8-1.07-1.84-2.46
				c-0.04-1.39,0.71-2.54,1.68-2.57C2279.84,304.81,2280.66,305.91,2280.71,307.3z"/>
		</g>
		<g>
			<g>
				<path class="st14" d="M2236.73,303.52c2.43-2.98,7.44-2.93,11.2,0.13s4.83,7.96,2.41,10.94c-2.43,2.98-7.44,2.93-11.2-0.13
					S2234.3,306.51,2236.73,303.52z"/>
			</g>
			<g>
				<g>
					<path class="st16" d="M2235.16,307.13c0.14,2.65,0.82,5.2,2.95,6.94c2.42,1.97,5.67,3.22,8.78,3.28c0.35,0.01,0.35-0.53,0-0.54
						c-2.94-0.05-5.84-1.2-8.18-2.97c-2.17-1.64-2.87-4.08-3.01-6.71C2235.68,306.78,2235.14,306.78,2235.16,307.13L2235.16,307.13z
						"/>
				</g>
			</g>
		</g>
		<g>
			<g>
				<path class="st16" d="M2245.07,307.86c0.61,0.69,0.93,1.26,0.53,2.21c-0.11,0.27-0.36,0.49-0.47,0.78
					c-0.28,0.68-0.27,1.39-0.05,2.08c0.12,0.37,0.7,0.21,0.58-0.15c-0.23-0.71-0.19-1.46,0.23-2.1c0.24-0.37,0.65-0.64,0.7-1.11
					c0.08-0.77-0.62-1.6-1.09-2.13C2245.25,307.15,2244.82,307.57,2245.07,307.86L2245.07,307.86z"/>
			</g>
		</g>
		<g>
			<g>
				<path class="st16" d="M2246.74,303.22c0.69,0.38,1.29,0.9,1.74,1.54c0.22,0.31,0.74,0.02,0.52-0.3
					c-0.52-0.73-1.17-1.33-1.96-1.76C2246.71,302.52,2246.4,303.03,2246.74,303.22L2246.74,303.22z"/>
			</g>
		</g>
		<g>
			<g>
				<path class="st13" d="M2323.21,592.74c2.46-7.77,8.42-10.93,15.83-13.02c0.31-0.09,0.18-0.57-0.13-0.49
					c-7.58,2.14-13.69,5.47-16.18,13.37C2322.63,592.92,2323.11,593.05,2323.21,592.74L2323.21,592.74z"/>
			</g>
		</g>
		<g>
			<g>
				<path class="st13" d="M2300.05,710.41c13.77,5.72,29.15,7.02,43.84,4.86c0.32-0.05,0.19-0.53-0.13-0.49
					c-14.6,2.15-29.89,0.83-43.57-4.85C2299.89,709.8,2299.75,710.29,2300.05,710.41L2300.05,710.41z"/>
			</g>
		</g>
		<g>
			<g>
				<path class="st14" d="M2209.55,470.54c0.73,1.99,1.93,3.78,3.45,5.25c2.43,2.35,5.68,3.89,9.06,4.09
					c1.95,0.13,3.91-0.16,5.86-0.16c3.06,0,6.1,0.7,8.86,2.02c0.03,0.07,0.06,0.13,0.09,0.2c1.03,2.16,1.77,4.46,2.86,6.6
					c1.32,2.58,3.36,5.04,6.17,5.78c0.31,0.08,0.63,0.14,0.93,0.03c0.68-0.26,0.75-1.18,0.69-1.91c-0.3-4.05-0.94-8.19-2.02-12.15
					c0.07,0.12,0.15,0.24,0.23,0.37c1.43,2.53,2.23,5.36,3.55,7.95c1.32,2.58,3.36,5.04,6.17,5.78c0.31,0.08,0.64,0.14,0.93,0.03
					c0.68-0.26,0.75-1.18,0.7-1.91c-0.22-2.92-0.61-5.88-1.22-8.79c0.56,1.06,1.12,2.12,1.77,3.13c1.57,2.44,3.85,4.68,6.71,5.14
					c0.31,0.05,0.65,0.07,0.93-0.07c0.65-0.33,0.63-1.25,0.5-1.97c-1.03-5.8-2.75-11.71-5.52-16.9c0.88,0.69,1.72,1.42,2.49,2.25
					c1.82,1.97,3.13,4.35,4.86,6.39c1.73,2.05,4.08,3.82,6.76,3.89c0.29,0.01,0.6-0.01,0.84-0.17c0.56-0.38,0.43-1.22,0.23-1.86
					c-2.65-8.39-6.98-16.86-14.01-21.89c-1.14-0.82-2.36-1.55-3.65-2.17c-4.01-1.93-8.47-2.69-12.88-3.29
					c-4.52-0.61-9.06-1.06-13.61-1.36c-2.14-0.1-4.31-0.24-6.41-0.28c-0.19-0.01-0.39-0.01-0.59-0.01
					c-7.34-0.06-13.78,1.43-15.47,11.64C2208.77,467.67,2209.05,469.16,2209.55,470.54z"/>
			</g>
			<g>
				<path class="st14" d="M2199.64,471.02c-1.37,3.21,1.31,6.68,4.76,6.17c2.35-0.34,4.66-0.72,6.65-1.06c0.01,0,0.01,0,0.01,0
					c0.7-0.12,1.36-0.23,1.96-0.34c1.49-0.27,2.64-0.47,3.26-0.59c0.33-0.06,0.52-0.1,0.52-0.1l8.11-20.53v-0.01l-11.49-0.09
					c-1.31-0.01-2.59,0.43-3.59,1.27c-2.21,1.87-4.53,4.75-6.67,8.34c-0.02,0.03-0.04,0.06-0.06,0.1c-1.22,2.05-2.38,4.32-3.42,6.76
					L2199.64,471.02z"/>
			</g>
		</g>
		<g>
			<g>
				<path class="st15" d="M2210.99,472.35c0.72,1.33,1.44,2.67,2.16,4c0.19,0.35,0.73,0.04,0.54-0.31c-0.72-1.33-1.44-2.67-2.16-4
					C2211.34,471.69,2210.8,472,2210.99,472.35L2210.99,472.35z"/>
			</g>
		</g>
		<g>
			<g>
				<path class="st15" d="M2256.42,483.11c-1.72-3.25-3.25-8.06-6.75-9.83c-0.35-0.18-0.67,0.35-0.32,0.53
					c3.34,1.69,4.87,6.47,6.53,9.61C2256.07,483.77,2256.61,483.46,2256.42,483.11L2256.42,483.11z"/>
			</g>
		</g>
		<g>
			<g>
				<path class="st15" d="M2245.84,480.69c-0.61-2.87-2.54-5.24-5.23-6.41c-0.36-0.16-0.68,0.37-0.32,0.53
					c2.56,1.11,4.37,3.3,4.95,6.03C2245.32,481.24,2245.92,481.08,2245.84,480.69L2245.84,480.69z"/>
			</g>
		</g>
		<g>
			<g>
				<path class="st15" d="M2260.61,472.93c-1.47-1.81-2.75-3.74-3.85-5.8c-0.19-0.35-0.73-0.04-0.54,0.31
					c1.12,2.1,2.44,4.08,3.94,5.92C2260.42,473.68,2260.86,473.24,2260.61,472.93L2260.61,472.93z"/>
			</g>
		</g>
		<g>
			<g>
				<path class="st18" d="M2391.12,451.31C2391.11,451.32,2391.11,451.32,2391.12,451.31c-4.83,29.29-13.62,60.07-13.62,60.07
					c-16.56,0.17-47.96-0.03-79.09-0.33c-44.13-0.42-87.72-1.02-87.72-1.02c-1.47-15.98,56.14-8.77,56.14-8.77
					c3.29-55.41,15.84-88.25,15.84-88.25c27.39-1.18,111.31,1.64,111.31,1.64C2394.75,424.36,2393.37,437.68,2391.12,451.31z"/>
			</g>
			<g>
				<g>
					<path class="st13" d="M2325.88,457.53c-1.29,3.53-1.55,8.19,2.76,9.64c4.05,1.37,7.74-1.26,9.75-4.61
						c1.93-3.22,4.57-8.76,0.82-11.65c-3.85-2.97-8.35,0.01-11.44,2.54c-1.17,0.96,0.49,2.63,1.65,1.67c2-1.64,5.18-4.24,7.93-2.63
						c3.01,1.76,0.32,6.69-0.99,8.86c-1.31,2.18-3.34,4.08-6.06,3.77c-3.79-0.43-3.12-4.35-2.17-6.96
						C2328.66,456.75,2326.39,456.12,2325.88,457.53L2325.88,457.53z"/>
				</g>
			</g>
			<g>
				<path class="st19" d="M2391.11,451.32c-4.83,29.28-13.62,60.07-13.62,60.07c-16.56,0.17-47.96-0.03-79.09-0.33
					C2301.11,510.54,2377.63,495.48,2391.11,451.32z"/>
			</g>
		</g>
		<g>
			<g>
				<path class="st8" d="M2247.68,271.92c-1.93,1-3.86,2.12-5.28,3.76c-1.3,1.51-2.1,3.39-2.77,5.27
					c-1.93,5.37-3.03,11.4-0.98,16.74c0.64,1.67,1.61,3.25,3.04,4.32c1.43,1.06,3.38,1.53,5.05,0.91c1.67-0.62,2.85-2.26,3.14-4.02
					c0.29-1.76-0.23-3.59-1.21-5.08c2.78,0.64,6.01,0.26,7.97-1.81c1.83-1.93,1.81-5.52-0.27-7.03c2.46,1.3,5.96,0.26,7.19-2.27
					c1.15,0.77,2.5,1.45,3.85,1.19c1.35-0.26,2.45-1.93,1.67-3.07c2.49,1.56,5.24,2.71,8.09,3.39c2.35,0.56,4.86,0.79,7.17,0.07
					s4.38-2.55,4.87-4.92c0.48-2.37,0.03-9.26-6.98-11.03l-7.8-1.74c-5.03-4-2.11-1.04-8.51-0.53
					C2259.52,266.6,2253.39,268.95,2247.68,271.92z"/>
			</g>
		</g>
	</g>
	<g>
		<g>
			<path class="st14" d="M1910.12,979.86c0,0,20.59,25.37,33.8,19.85c13.21-5.52,12.2-11.06,11.43-15.8
				c-4.59-28.49-33.84-37.01-33.84-37.01L1910.12,979.86z"/>
		</g>
		<path class="st12" d="M1907.48,1014.23L1907.48,1014.23c-6.68-1.05-9.22-8.13-5.67-15.81l38.04-82.23
			c3.55-7.68,11.85-13.05,18.53-12l0,0c6.68,1.05,9.22,8.13,5.67,15.81l-38.04,82.23
			C1922.46,1009.92,1914.16,1015.29,1907.48,1014.23z"/>
		<g>
			<path class="st9" d="M2123.02,849.96c0,0,18.36,9.89,11.18,32.46c-6.42,20.17-37.68,33.59-47.64,27.17
				C2076.61,903.16,2119.09,849.8,2123.02,849.96z"/>
		</g>
		<g>
			<path class="st14" d="M2260.42,1104.79c-0.17-0.34-0.33-0.6-0.48-0.81c-3.04-5.42-9.89-8.14-16.44-6.14l-3.07,0.93
				c-5.78,1.76-9.16,7.63-7.51,13.05l0,0c0.35,1.16,0.26,2.39-0.23,3.5c-0.81,1.85-0.82,5.52,0.64,12.13
				c2.18,9.9,5.87,24.94,9.42,24.15c1.76-0.39,1.68-5.64,0.88-11.91c0.21-0.05,0.13-0.03,0.34-0.08c2.86,8.82,7.36,21.4,10.73,20.32
				c2.93-0.94-0.42-14.31-3.24-23.15l0.35-0.25c3.08,9.13,7.24,19.8,10.22,18.84c2.79-0.9-0.45-14.09-3.42-23.67l0.33-0.24
				c3.19,7.51,6.93,15,9.12,14.14c2.04-0.8-0.71-10.25-3.68-18.47c0.16-0.25,0.29-0.49,0.42-0.74c1.56,2.46,3.06,4.18,4.04,3.7
				C2270.5,1129.3,2262.85,1109.75,2260.42,1104.79z"/>
		</g>
		<g>
			<path class="st11" d="M2119.52,944.78c0,0,19.58-5.21,45.54,6.99c17.59,8.27,72.27,73.77,76.32,82.75s21.04,68.14,21.04,68.14
				s-13.64,13.64-34.67,13.43c0,0-24.19-60.68-26.09-64.68c-1.9-4.01-43.24-34.96-43.24-34.96l-41.22-44.08L2119.52,944.78z"/>
		</g>
		<g>
			<path class="st11" d="M1954.02,978.14c0,0,24.91,40.07,39.78,60.88c5.4,7.56,7.52-84.97,51.95-95.35
				c22.27-5.2,23.65,86.39,23.65,86.39s-14.54,69.61-76.32,65.17c-45.09-3.24-54.38-94.73-54.38-94.73s4.89-1.02,8.82-6.13
				C1951.78,988.82,1954.02,978.14,1954.02,978.14z"/>
		</g>
		<g>
			<g>
				<path class="st20" d="M2087.17,1480.71c0.1,4.04,0.21,7.98,0.2,11.64c-0.01,2.18-1.56,4.07-3.7,4.49
					c-5.42,1.08-11.07,1-16.63,0.9c-18.04-0.31-36.09-0.62-54.13-0.93c-1.86-0.03-3.93-0.15-4.96-2c-0.65-1.18-0.56-2.62,0.06-3.81
					c1.26-2.41,3.79-3.42,6.21-4.32c11.71-4.35,24.43-8.72,33.22-17.12c0.28-0.26,0.55-0.54,0.82-0.81
					c1.85-1.88,3.51-3.96,4.93-6.27c1.1-1.79,2.03-3.72,2.56-5.74c0.19-0.7,0.33-1.4,0.41-2.12c0.04-0.28,0.06-0.56,0.08-0.84
					l6.37-0.28l1.83-0.08l24.62-1.09c-1.68,6.23-2.04,13.55-2.02,20.9C2087.07,1475.72,2087.12,1478.24,2087.17,1480.71z"/>
			</g>
		</g>
		<g>
			<g>
				<path class="st20" d="M2214.26,1496.84c-5.42,1.08-11.07,1-16.63,0.9c-18.04-0.31-36.09-0.62-54.13-0.93
					c-1.86-0.03-3.93-0.15-4.96-2c-0.65-1.18-0.56-2.62,0.06-3.81c1.26-2.41,3.79-3.42,6.21-4.32c11.71-4.35,24.43-8.72,33.22-17.12
					c0.28-0.26,0.55-0.54,0.82-0.81c1.85-1.88,3.51-3.96,4.93-6.27c1.1-1.79,2.03-3.72,2.56-5.74c0.19-0.7,0.33-1.4,0.41-2.12
					c0.04-0.28,0.06-0.56,0.08-0.84l6.37-0.28l1.83-0.08l14.14-29.84c-1.68,6.23,4.12,32.89,5.36,41.51
					C2217.98,1489.18,2216.4,1496.42,2214.26,1496.84z"/>
			</g>
		</g>
		<g>
			<g>
				<path class="st12" d="M2199.94,1465.08c16.61-3.54,16.61-8.8,16.61-8.8s-20.98-100.55-26.75-134.29
					c-7.46-43.65-34.7-190.98-34.7-190.98l-120.48,1.73c0,0-7.05,138.04-4.01,179.3c2.79,37.83,16.11,150.93,16.11,150.93
					s0.57,3.83,16.12,3.46c24.34-0.58,26.25-6.25,26.25-6.25s-2.35-88.43-1.7-116.86c0.63-27.88,6.83-108.4,6.83-108.4
					s21.86,71.01,30.17,94.34c12.23,34.32,53.37,135.63,53.37,135.63S2181.71,1468.96,2199.94,1465.08z"/>
			</g>
		</g>
		<g>
			<g>
				<g>
					<path class="st13" d="M2093.97,1235.92c-1.06-6.17-2.61-12.24-4.71-18.14c-1.07-3.02-2.28-6-3.63-8.92
						c-1.25-2.7-2.48-6.11-5.29-7.54c-0.35-0.18-0.04-0.71,0.31-0.53c2.41,1.23,3.55,3.68,4.68,6.01c1.42,2.94,2.71,5.94,3.85,8.99
						c2.43,6.47,4.21,13.16,5.38,19.97C2094.62,1236.15,2094.03,1236.31,2093.97,1235.92L2093.97,1235.92z"/>
				</g>
			</g>
		</g>
		<g>
			<g>
				<g>
					<path class="st13" d="M2157.8,1193.5c1.9,10.27,3.86,20.53,5.8,30.79c3.79,20.07,7.6,40.14,11.42,60.2
						c4.49,23.59,8.99,47.17,13.52,70.75c3.99,20.81,8,41.61,12.08,62.4c2.3,11.72,4.47,23.49,7.1,35.15
						c0.12,0.51,0.23,1.02,0.36,1.53c0.1,0.38-0.5,0.55-0.59,0.16c-2.54-10.11-4.28-20.47-6.29-30.69
						c-3.95-20.04-7.81-40.09-11.67-60.15c-4.53-23.58-9.04-47.16-13.53-70.75c-3.96-20.81-7.92-41.63-11.86-62.45
						c-2.22-11.75-4.45-23.49-6.65-35.25c-0.1-0.52-0.19-1.03-0.29-1.55C2157.14,1193.28,2157.73,1193.12,2157.8,1193.5
						L2157.8,1193.5z"/>
				</g>
			</g>
		</g>
		<g>
			<g>
				<g>
					<path class="st21" d="M2039.57,988.73c-0.89,8-9.5,45.09-8.27,56.7c1.89,17.81-4,88.75-4,88.76
						c0.78,6.97,0.65,24.81,1.21,30.57c0,0,5.15,11.85,80.96,13.33c54.24,1.06,54.02-9.41,54.02-9.41
						c-1.79-10.04-3.21-19.72-4.31-29.01c-0.02-0.11-0.03-0.21-0.04-0.32c-0.03-0.24-0.06-0.49-0.09-0.74
						c-1.28-10.98-2.13-21.4-2.63-31.23c-0.63-12.29-0.73-23.63-0.48-33.92c0.02-0.49,0.03-0.98,0.04-1.46
						c0.01-0.26,0.02-0.51,0.02-0.77c0.09-2.81,0.19-5.54,0.33-8.18v0c0.07-1.51,0.16-2.99,0.24-4.45c0.03-0.44,0.05-0.88,0.09-1.31
						c2.07-32.23-31.34-93.92-31.34-93.92s3.82-28.86-25.73-28.86C2055.06,934.52,2044.41,945.14,2039.57,988.73z"/>
				</g>
			</g>
		</g>
		<g>
			<g>
				<g>
					<path class="st14" d="M2072.17,923.62c0.33-1.82,0.62-3.61,0.87-5.25c0.26-1.72,0.47-3.26,0.63-4.46
						c0.21-1.61,0.33-2.61,0.33-2.61l15.35-4.79l1.69-6.91l8.66,3.68c-0.18-2.57-0.54,14.86,1.71,38.26
						c0.57,5.95-9.74,18.16-27.62,12.36c-11.13-3.61-6.63-14.48-4.83-18.07c0.68-1.36,1.32-3.48,1.91-5.9
						C2071.35,927.95,2071.79,925.77,2072.17,923.62z"/>
				</g>
			</g>
		</g>
		<g>
			<g>
				<g>
					<path class="st15" d="M2090.55,909.33c-0.03,0.16-0.06,0.33-0.09,0.49c-0.4,1.93-1,3.67-1.75,5.28
						c-0.17,0.37-0.35,0.73-0.54,1.09c-0.01,0.03-0.03,0.05-0.04,0.08c-0.18,0.35-0.38,0.69-0.58,1.02
						c-4.64,7.66-12.75,11.27-16.68,12.63c0.48-1.96,0.92-4.14,1.31-6.28c0.08-0.45,0.16-0.9,0.24-1.35
						c0.02-0.12,0.04-0.23,0.06-0.35c0.01-0.11,0.03-0.22,0.05-0.33c0.02-0.11,0.04-0.22,0.06-0.34c0.16-1,0.31-1.97,0.45-2.89
						c4.09-1.59,11.97-5.93,15.6-7.96C2089.82,909.75,2090.55,909.33,2090.55,909.33z"/>
				</g>
			</g>
		</g>
		<g>
			<path class="st12" d="M2072.16,962.38c0,0-13.78,125.23-9.53,167.57c0.19,1.94,1.06,3.74,2.44,5.11l12.56,12.51
				c1.6,1.59,4.22,1.5,5.69-0.21l13.15-13.5c1.53-1.57,2.28-3.73,2.05-5.91c-2.39-22.75-15.7-151.34-12.42-165.95L2072.16,962.38z"
				/>
		</g>
		<g>
			<path class="st11" d="M2118.4,1042.81c0,0,0.38,91.65,22.9,144.05c0,0,53.78,1.48,66.79-18.91c0,0-31.08-79.06-46.14-210.69
				c-1.8-15.71-43.67-13.74-43.67-13.74l-3.22,45.21L2118.4,1042.81z"/>
		</g>
		<g>
			<path class="st11" d="M2052.47,1037.5c0,0-1.81,74.45-7.01,144.62c0,0-27.39,1.17-40.41-19.21c0,0,15.58-78.33,13.23-140.86
				c-1-26.73,11.2-52.24,32.43-68.51l6.84-5.24c0,0-0.33-4.18-4.29,42.75C2052.49,1000.22,2052.47,1037.5,2052.47,1037.5z"/>
		</g>
		<g>
			<path class="st22" d="M2109.58,934.52c0,0,2.42,55.72,8.83,108.3c0,0,7.75-24.45,6.32-48.66c0,0-7.28-2.39-7.99-4.17
				c0,0,6.44-2.39,8.59-2.03c0,0,23.05-6.13,13.78-43.77C2139.1,944.18,2127.57,935.43,2109.58,934.52z"/>
		</g>
		<g>
			<path class="st22" d="M2068.96,935.82c0,0-14.97,8.83-16.49,101.68c0,0-15.55-24.62-13.98-44.12c0,0,9.42-3.4,10.85-6.02
				c0,0-6.8-4.35-12.28-4.35c0,0-7.19-18.48,8.68-39.33C2045.74,943.67,2062.34,934.75,2068.96,935.82z"/>
		</g>
		<g>
			<g>
				<path class="st23" d="M2070.33,955.16c0,0,0.27-4.03,5-3.35c4.73,0.68,9.25-1,10.86-0.08c1.61,0.92,3.07,3.59,1.98,6.77
					c-1.09,3.18-6.19,8.96-10.57,8.44C2073.22,966.43,2069.41,958.38,2070.33,955.16z"/>
			</g>
			<g>
				<path class="st24" d="M2099.97,921.29c0,0,6.27,0.77,10.22,8.05c2.4,4.42,8.41,5.57,8.59,7.48c0.17,1.91-8.02,27.76-26.96,31.45
					c0,0-3.39-3.12-3.57-8.68c-0.17-5.56-4.52-8.09-4.52-8.09s-0.93-3.5,2.92-5.43c3.85-1.93,9.18-11.44,11.31-14.79
					C2100.36,927.52,2099.97,921.29,2099.97,921.29z"/>
			</g>
			<g>
				<path class="st24" d="M2072.07,924.22c0,0-12.28,5.16-14.52,14.05c-1.15,4.56,4.53,18.17,5.54,23.04c1,4.87,2.26,7.82,3.63,3.65
					c1.37-4.17,5.35-13.1,7.83-13.22c2.54-0.12-0.39-3.71-1.02-6.89C2071.06,932.36,2072.07,924.22,2072.07,924.22z"/>
			</g>
		</g>
		<g>
			<path class="st14" d="M2103.21,893.44c0,0-15.59,33.2-42.97,21.9c-28.02-11.56-14.37-30.35,1.56-58.4
				C2071.4,840.01,2127.5,840.88,2103.21,893.44z"/>
		</g>
		<g>
			<g>
				<path class="st15" d="M2095,907.17c-6.42,5.6-14.09,9.47-22.42,11.26c-0.38,0.08-0.58-0.5-0.19-0.58
					c8.21-1.77,15.82-5.56,22.15-11.08C2094.84,906.5,2095.3,906.91,2095,907.17L2095,907.17z"/>
			</g>
		</g>
		<g>
			<g>
				<path class="st25" d="M2071.49,875.93c0.09,2.77-1.63,5.08-3.26,7.17c-1.1,1.41-2.28,2.75-3.33,4.19
					c-0.57,0.78-1.85,1.92-0.96,2.92c0.35,0.4,1.21,0.66,1.67,1.01c0.35,0.27-0.06,0.81-0.41,0.54c-0.72-0.56-1.99-0.85-2.28-1.84
					c-0.31-1.05,0.89-2.3,1.44-3.04c2.28-3.11,6.6-6.68,6.46-10.86C2070.81,875.59,2071.48,875.49,2071.49,875.93L2071.49,875.93z"
					/>
			</g>
		</g>
		<g>
			<path class="st26" d="M2077.66,873.97c-0.98,1.5,1.26,3.42,4.28,5.39c3.02,1.97,5.68,3.24,6.66,1.74s-0.34-4.83-3.36-6.8
				C2082.22,872.33,2078.64,872.47,2077.66,873.97z"/>
		</g>
		<g>
			<path class="st26" d="M2058.79,866.4c-0.68,1.66,2.08,3.2,5.66,4.67c3.58,1.46,6.63,2.29,7.31,0.63s-1.44-4.76-5.02-6.23
				C2063.16,864.01,2059.47,864.74,2058.79,866.4z"/>
		</g>
		<g>
			<path class="st17" d="M2075.56,884.69c-0.7,1.41-0.46,2.95,0.53,3.44c0.99,0.49,2.35-0.26,3.05-1.68
				c0.7-1.41,0.46-2.95-0.53-3.44C2077.63,882.53,2076.26,883.28,2075.56,884.69z"/>
		</g>
		<g>
			<path class="st17" d="M2062.57,877.18c-0.7,1.41-0.46,2.95,0.53,3.44c0.99,0.49,2.35-0.26,3.05-1.68
				c0.7-1.41,0.46-2.95-0.53-3.44S2063.27,875.76,2062.57,877.18z"/>
		</g>
		<g>
			<path class="st9" d="M2109.18,893.75c-1.13-0.17-2.29,0.02-3.41-0.19c-3.37-0.62-6.52-2.51-8.58-5.26
				c-2.57-3.44-3.35-8.33-1.36-12.14c0.99-1.9,2.42-3.56,3.92-5.09c0.03-0.03,0.05-0.05,0.08-0.08c2.4-2.5,1.29-6.72-2.04-7.69
				c-1.52-0.44-3.09-0.69-4.4-0.75c-5.02-0.24-10.06-0.2-15.07,0.13c-3.31,0.22-6.64,0.02-9.88-0.67
				c-16.1-3.4-13.45-14.55-5.72-20.55c10.86-8.43,52.78-7.08,60.32,8.49c0,0,9.84,7.49,8.32,17.53
				C2129.82,877.54,2118.69,895.17,2109.18,893.75z"/>
		</g>
		<g>
			<g>
				
					<ellipse transform="matrix(0.9675 -0.2528 0.2528 0.9675 -158.0493 560.296)" class="st14" cx="2101.47" cy="895.23" rx="9.94" ry="7.9"/>
			</g>
		</g>
		<g>
			<g>
				<g>
					<path class="st15" d="M2111.02,897.16c-1.38,2.69-3.34,5.05-6.39,5.81c-3.37,0.84-7.32,0.66-10.5-0.77
						c-0.36-0.16-0.13-0.73,0.23-0.57c2.87,1.29,6.13,1.42,9.21,0.92c3.29-0.54,5.4-2.74,6.88-5.62
						C2110.62,896.58,2111.2,896.81,2111.02,897.16L2111.02,897.16z"/>
				</g>
			</g>
		</g>
		<g>
			<g>
				<path class="st15" d="M2100.45,893.27c-0.83,0.37-1.66,0.88-1.64,1.9c0.01,0.32,0.17,0.64,0.17,0.97
					c0.02,0.89-0.33,1.69-0.92,2.34c-0.29,0.32-0.83-0.09-0.54-0.41c0.66-0.73,0.9-1.55,0.69-2.52c-0.09-0.4-0.27-0.76-0.15-1.18
					c0.23-0.86,1.4-1.41,2.13-1.73C2100.59,892.46,2100.85,893.09,2100.45,893.27L2100.45,893.27z"/>
			</g>
		</g>
		<g>
			<g>
				<path class="st15" d="M2100.92,887.7c-0.89,0.07-1.75,0.32-2.52,0.77c-0.37,0.22-0.79-0.32-0.41-0.54
					c0.88-0.51,1.83-0.82,2.84-0.9C2101.26,886.99,2101.35,887.67,2100.92,887.7L2100.92,887.7z"/>
			</g>
		</g>
		<g>
			<g>
				<path class="st14" d="M1903.27,982.23c-7.25-4.66-6.23-7.31-4.37-10.19c1.85-2.88,3.84-4.9,11.09-0.24
					c7.25,4.66,15.09,10.96,12.3,15.29C1919.7,991.1,1910.52,986.9,1903.27,982.23z"/>
			</g>
			<g>
				<path class="st14" d="M1908.6,972.18c-8.49-5.46-7.55-8.16-5.7-11.04c1.85-2.88,3.92-4.85,12.41,0.61
					c8.49,5.46,17.77,12.68,14.98,17.02C1927.71,982.78,1917.09,977.64,1908.6,972.18z"/>
			</g>
			<g>
				<path class="st14" d="M1913.2,964.11c-8.49-5.46-7.55-8.16-5.7-11.04c1.85-2.88,3.92-4.85,12.41,0.61
					c8.49,5.46,17.77,12.68,14.98,17.02C1932.31,974.71,1921.68,969.57,1913.2,964.11z"/>
			</g>
			<g>
				<path class="st14" d="M1920.3,956.33c-6.85-4.41-6.09-6.58-4.59-8.91c1.5-2.32,3.17-3.91,10.01,0.49
					c6.85,4.41,14.33,10.23,12.08,13.73C1935.72,964.88,1927.15,960.74,1920.3,956.33z"/>
			</g>
			<g>
				<g>
					<path class="st27" d="M1919.91,987.99c0.48-2,0.97-4,1.45-6c-0.47-0.88-1.05-1.69-1.73-2.41c-0.68-0.79-1.45-1.51-2.21-2.23
						c-0.39-0.37,0.18-0.88,0.58-0.65c1.77,0.98,4.27,2.54,6.36,2.9c7.78,1.35,6.04-5.58,2.86-8.3c-0.44-0.38-0.01-0.99,0.5-0.73
						c3.01,2.28,5.12,0.99,6.35-3.89c-0.23-0.34-0.48-0.67-0.76-0.97c-0.5-0.73-1.32-1.36-1.95-1.96c-2.09-1.97-4.32-3.79-6.57-5.57
						c-3.61-2.87-7.33-5.9-11.43-8.04c-0.5-0.26,0-0.99,0.5-0.73c6.84,3.58,13.55,9.11,18.99,14.56c1.7,1.7,3.88,4.32,2.56,6.89
						c-1.67,3.22-5.8,1.65-8.18,0.45c0.17-0.24,0.33-0.49,0.5-0.73c4.56,3.9,4.94,12.3-2.9,10.13c-1.49-0.41-5.83-1.48-5.83-3.06
						c0,0.85,3.2,3.75,3.62,5.08c0.78,2.48,0.23,5.04-2.32,6.07C1919.78,989,1919.39,988.21,1919.91,987.99L1919.91,987.99z"/>
				</g>
			</g>
			<g>
				<g>
					<path class="st27" d="M1907.17,957.47c8.05,3.23,14.54,8.54,21.36,13.76c0.45,0.34-0.04,1.08-0.5,0.73
						c-6.76-5.18-13.16-10.45-21.14-13.65C1906.35,958.1,1906.64,957.26,1907.17,957.47L1907.17,957.47z"/>
				</g>
			</g>
			<g>
				<g>
					<path class="st27" d="M1904.55,968.59c5.05,2.46,9.7,5.54,14.3,8.74c0.47,0.33-0.03,1.06-0.5,0.73
						c-4.53-3.16-9.12-6.22-14.09-8.64C1903.76,969.18,1904.04,968.34,1904.55,968.59L1904.55,968.59z"/>
				</g>
			</g>
		</g>
		<path class="st13" d="M2062.84,898.72c-0.56,2.29-2.15,3.86-3.56,3.52c-1.41-0.34-2.1-2.48-1.54-4.76
			c0.56-2.29,2.15-3.86,3.56-3.52C2062.71,894.3,2063.4,896.43,2062.84,898.72z"/>
		<g>
			<path class="st12" d="M1978.7,936.49l-47.59-11.37l3.82-84.27l63.24,15.11c17,4.06,27.58,21.29,23.52,38.29l-4.43,18.55
				C2013.17,929.92,1995.82,940.58,1978.7,936.49z"/>
			<path class="st9" d="M1950.35,844.61l-19.23,80.48c-56.77-13.54-136.36,4.72-136.36,4.72l2.38-9.77l37.08-151.94
				c0,0,39.79,55.12,115.43,76.31C1949.88,844.48,1950.12,844.55,1950.35,844.61z"/>
			
				<ellipse transform="matrix(0.2324 -0.9726 0.9726 0.2324 564.7376 2410.6033)" class="st28" cx="1809.61" cy="847.51" rx="84.93" ry="25.57"/>
			<path class="st9" d="M1956.18,888.5c-1.43,6-3.3,11.58-5.44,16.47c-5.74,13.27-13.4,21.6-19.63,20.12
				c-4.79-1.15-7.72-7.88-8.42-17.5c-0.53-7.49,0.28-16.74,2.6-26.47c5.17-21.64,15.92-37.72,24.35-36.72
				c0.24,0.02,0.48,0.07,0.71,0.13C1958.89,846.57,1961.5,866.26,1956.18,888.5z"/>
			<path class="st13" d="M1829.77,838.7c0,0-22.93-5.59-28.72,2.58c-7.11,10.03,10.66,21.21,22.43,23.73
				C1823.48,865,1831.37,853.9,1829.77,838.7z"/>
			<path class="st29" d="M1950.75,904.98c-5.74,13.27-13.4,21.6-19.63,20.12c-56.77-13.54-136.36,4.72-136.36,4.72l2.38-9.77
				l32.38-48.52c0,0,10.23,23.84,42.19,32.66c14.69,4.06,34.21,4.31,50.99,3.41c4.52-0.24,8.85-0.57,12.82-0.94
				C1941.56,906.13,1946.8,905.5,1950.75,904.98z"/>
		</g>
		<g>
			<path class="st13" d="M1990.79,1033.82c6.18,10.63,9.08,22.38,8.59,34.66c-0.03,0.87,1.32,0.87,1.35,0
				c0.5-12.5-2.49-24.53-8.77-35.34C1991.52,1032.38,1990.36,1033.06,1990.79,1033.82L1990.79,1033.82z"/>
		</g>
		<g>
			<path class="st13" d="M2017.83,1028.93c-0.42,23.79-1.03,47.28-4,70.92c-0.11,0.86,1.24,0.85,1.35,0
				c2.98-23.64,3.58-47.14,4-70.92C2019.2,1028.06,2017.84,1028.06,2017.83,1028.93L2017.83,1028.93z"/>
		</g>
		<g>
			<path class="st13" d="M2145.27,1015.64c10.77,4.45,21.2,9.59,31.3,15.41c0.75,0.43,1.44-0.73,0.68-1.17
				c-10.2-5.88-20.74-11.05-31.62-15.54C2144.82,1014.01,2144.47,1015.31,2145.27,1015.64L2145.27,1015.64z"/>
		</g>
	</g>
	<g>
		<g>
			<g>
				<polygon class="st2" points="324.07,769.31 346.28,790.73 410.85,751.66 348.22,732.84 351.74,759.47 				"/>
			</g>
			<g>
				<polygon class="st3" points="410.85,751.66 328.79,749.83 248.46,803.83 				"/>
			</g>
			<g>
				<polygon class="st3" points="410.85,751.66 329.54,694.16 348.22,732.84 				"/>
			</g>
		</g>
		<g>
			<g>
				<path class="st2" d="M177.31,684.74c10.21,26.67,28.92,49.86,54.48,63.09c23.14,11.97,50.42,15.47,75.4,7.49
					c0.77-0.25,0.26-1.4-0.51-1.15c-44.45,14.2-92.42-8.53-116.65-46.76c-13.96-22.02-20.88-48.28-21.12-74.25
					c-0.22-23.14,4.84-47.47,19.47-65.96c2.08-2.63,4.4-5.12,6.9-7.43c-0.16-0.46-0.33-0.91-0.48-1.37
					C161.73,588.23,162.44,645.88,177.31,684.74z"/>
				<path class="st2" d="M196.23,484.37c15.79-53.8,63.28-92.13,118.01-101.11c0.8-0.13,0.62-1.38-0.18-1.25
					c-53.47,8.77-100.54,45.42-117.63,97.49c-7.62,23.19-9.43,48.8-3.47,72.6c0.53,2.1,1.14,4.2,1.85,6.29
					c0.34-0.3,0.68-0.6,1.03-0.9c-0.53-1.58-1-3.16-1.41-4.73C188.63,530.47,189.77,506.38,196.23,484.37z"/>
				<path class="st2" d="M249.79,544.56c12.39,3.66,22.55,13.25,20.86,27.04c-1.52,12.37-10.92,22.42-23.06,24.87
					c-25.15,5.07-43.62-16.02-51.28-37.63c-0.34,0.3-0.68,0.61-1.01,0.92c7.3,20.43,23.12,39.09,46.59,38.58
					c10.02-0.22,19.28-4.77,24.93-13.16c5.54-8.23,7.41-19.53,2.27-28.41c-11.79-20.39-42.77-17.49-60.43-8.07
					c-4.73,2.52-8.98,5.48-12.81,8.8c0.15,0.45,0.31,0.9,0.47,1.35C210.7,546.06,230.99,539.02,249.79,544.56z"/>
				<path class="st2" d="M195.29,559.76c0.33-0.31,0.67-0.61,1.01-0.92c-0.16-0.45-0.32-0.9-0.47-1.35c-0.34,0.3-0.69,0.59-1.03,0.9
					C194.96,558.84,195.13,559.3,195.29,559.76z"/>
			</g>
		</g>
	</g>
	<g>
		<polygon class="st11" points="1378.6,1318.1 1098.95,1318.1 1084.4,940.72 1364.05,940.72 		"/>
		<polygon class="st13" points="1385.99,1318.1 1106.34,1318.1 1091.79,940.72 1371.44,940.72 		"/>
		<path class="st12" d="M1375.84,1324.09h-273.66c-1.65,0-3.04-1.35-3.11-2.99l0,0c-0.06-1.65,1.23-2.99,2.88-2.99h273.66
			c1.65,0,3.04,1.35,3.11,2.99l0,0C1378.78,1322.74,1377.48,1324.09,1375.84,1324.09z"/>
		<g>
			<path class="st12" d="M1231.62,1502.28c-0.57,0-1.04-0.47-1.04-1.04V1321.1c0-0.57,0.46-1.04,1.04-1.04
				c0.57,0,1.04,0.47,1.04,1.04v180.15C1232.65,1501.81,1232.19,1502.28,1231.62,1502.28z"/>
		</g>
		<g>
			<path class="st12" d="M1161.25,1502.28c-0.22,0-0.45-0.07-0.64-0.22c-0.45-0.35-0.53-1-0.18-1.45l70.37-90.07
				c0.2-0.25,0.5-0.39,0.82-0.39c0.01,0,0.01,0,0.02,0c0.33,0,0.63,0.16,0.83,0.43l63.41,88.11c0.33,0.47,0.23,1.11-0.24,1.44
				c-0.46,0.33-1.11,0.23-1.45-0.23l-62.6-86.99l-69.51,88.99C1161.86,1502.15,1161.56,1502.28,1161.25,1502.28z"/>
		</g>
		<g>
			<g>
				<g>
					<path class="st14" d="M1524.93,968.44c-26.23,7.54-40.85,60.13-40.85,60.13s-21.54-32.17-23.47-57.77l-23.58,10.96
						c0,0,2.37,74.47,26.28,89.81c35.28,22.63,62.07-47.48,62.07-47.48S1532.36,966.31,1524.93,968.44z"/>
				</g>
			</g>
			<g>
				<g>
					<path class="st21" d="M1482.7,1082.34c4.51-2.85-10.1-29.36-10.1-29.36s-10.19,13.41-11.72,22
						C1460.88,1074.98,1478.19,1085.2,1482.7,1082.34z"/>
				</g>
			</g>
			<g>
				<g>
					<path class="st21" d="M1504.13,979.38c-17.09,29.26-24,50.24-24,50.24l29.21,41.73l64.28-39.78l19.88-48.66l-23.13-37.68
						C1570.38,945.22,1521.22,950.12,1504.13,979.38z"/>
				</g>
			</g>
			<g>
				<g>
					<path class="st14" d="M1451.94,963.82c-7.53-2.1-15.87-1.12-22.71,2.67l-12.63-4.25c-4.16-1.02-8.57-1.02-12.73,0.02
						c-1.09,0.27-2.27,0.7-2.77,1.71c-0.34,0.69-0.28,1.5-0.15,2.26c0.7,4.13,3.13,7.83,6.28,10.58c3.15,2.75,6.99,4.62,10.93,6.02
						c10.13,3.58,21.42,4.14,31.68,0.94c2.98-0.93,5.94-2.22,8.13-4.44c2.19-2.22,3.49-5.52,2.65-8.53
						C1459.57,967.05,1455.68,964.87,1451.94,963.82z"/>
				</g>
			</g>
			<g>
				<g>
					<g>
						<path class="st15" d="M1493.59,1055.86c1.28-12.54-5.07-23.9-13.27-32.88c-0.23-0.25-0.6,0.12-0.37,0.37
							c8.11,8.88,14.38,20.1,13.11,32.51C1493.03,1056.2,1493.56,1056.2,1493.59,1055.86z"/>
					</g>
				</g>
			</g>
			<g>
				<g>
					<g>
						<path class="st15" d="M1453.57,980.01c-6.98,4.13-15.05,5.89-23.12,5.07c-0.34-0.03-0.34,0.49,0,0.53
							c8.15,0.83,16.33-0.97,23.38-5.14C1454.13,980.29,1453.86,979.84,1453.57,980.01z"/>
					</g>
				</g>
			</g>
			<g>
				<g>
					<g>
						<path class="st14" d="M1569.44,1441.99l-2.07,0.17l-6.51-22.92c0,0.32-0.69,24.13-0.72,24.44c-0.06,0.81-0.19,1.62-0.38,2.41
							c-0.52,2.3-1.49,4.51-2.66,6.58c-1.51,2.67-3.3,5.08-5.31,7.27c-0.3,0.32-0.59,0.64-0.9,0.95
							c-9.57,9.83-23.73,15.27-36.77,20.64c-2.68,1.11-5.5,2.35-6.82,5.12c-0.65,1.37-0.69,3,0.09,4.3c1.23,2.05,3.57,2.1,5.67,2.06
							c20.36-0.38,38.4,2.12,61.08-1.13c6.21-0.89,12.64-0.25,18.71-1.69c2.4-0.56,4.06-2.75,3.99-5.21
							c-0.13-4.13-0.42-8.56-0.69-13.12c-0.17-2.79-0.32-5.62-0.43-8.45c-0.32-8.28,1.45-24.2,3.03-34.31L1569.44,1441.99z"/>
					</g>
				</g>
				<g>
					<g>
						<g>
							<path class="st30" d="M1507.47,1489.46c-1.58-0.4-2.5,1.98-0.91,2.38c14.5,3.69,29.36,4,44.23,3.21
								c15.28-0.81,30.51-2.15,45.82-2.41c1.62-0.03,1.88-2.56,0.25-2.54c-14.59,0.25-29.11,1.4-43.67,2.27
								C1537.87,1493.3,1522.42,1493.27,1507.47,1489.46z"/>
						</g>
					</g>
				</g>
				<g>
					<g>
						<path class="st9" d="M1568.03,1492.51l26.39-1.09c6.77-7.65,1.06-25.05,1.06-25.05
							C1570.92,1478.46,1568.03,1492.51,1568.03,1492.51z"/>
					</g>
				</g>
				<g>
					<g>
						<path class="st30" d="M1527.92,1475.23c-4.67,1.53-8.86,4.35-17.17,7.38c-6.51,2.37-10.52,7.95,5.43,10.07
							c15.96,2.11,32.99,0.71,32.99,0.71S1535.91,1472.61,1527.92,1475.23z"/>
					</g>
				</g>
			</g>
			<g>
				<g>
					<path class="st14" d="M1525.92,1185.65c0,0,4.01,79.03,21.2,149.71c17.19,70.67,13.98,147.3,13.98,147.3h35.14
						c0,0,17.63-117.31,6.77-163.36c-10.86-46.04,3.61-109.49-34.14-174.68C1531.12,1079.43,1525.92,1185.65,1525.92,1185.65z"/>
				</g>
			</g>
			<g>
				<g>
					<path class="st14" d="M1555.08,1185.65c0,0,4.01,79.03,21.2,149.71c17.19,70.67,13.98,147.3,13.98,147.3h35.14
						c0,0,17.63-117.31,6.77-163.36s3.61-109.49-34.14-174.68C1560.28,1079.43,1555.08,1185.65,1555.08,1185.65z"/>
				</g>
			</g>
			<g>
				<g>
					<g>
						<path class="st14" d="M1581.94,1466.87c-9.57,9.83-23.73,15.27-36.77,20.64c-2.68,1.11-5.5,2.35-6.82,5.12
							c-0.65,1.37-0.69,3,0.09,4.3c1.23,2.05,3.58,2.1,5.67,2.06c20.36-0.38,38.4,2.12,61.08-1.13c6.21-0.89,12.64-0.25,18.71-1.69
							c2.4-0.56,4.06-2.75,3.99-5.21c-0.13-4.13-0.42-8.56-0.69-13.12c-0.17-2.79-0.32-5.62-0.43-8.45
							c-0.32-8.28,1.45-24.2,3.03-34.31l-29.31,12.88l-2.07,0.17l-6.51-22.92c0,0.32-0.69,24.13-0.72,24.44
							c-0.06,0.81-0.19,1.62-0.38,2.41c-0.52,2.3-1.49,4.51-2.66,6.58c-1.51,2.67-3.3,5.08-5.31,7.27
							C1582.53,1466.24,1582.24,1466.56,1581.94,1466.87z"/>
					</g>
				</g>
				<g>
					<g>
						<g>
							<path class="st9" d="M1538.5,1495.45c-1.58-0.4-2.5,1.98-0.91,2.38c14.5,3.69,29.36,4,44.23,3.21
								c15.28-0.81,30.51-2.15,45.82-2.41c1.62-0.03,1.88-2.56,0.25-2.54c-14.59,0.25-29.11,1.4-43.67,2.27
								C1568.91,1499.29,1553.46,1499.26,1538.5,1495.45z"/>
						</g>
					</g>
				</g>
				<g>
					<g>
						<path class="st9" d="M1626.51,1472.36c-24.56,12.09-27.45,26.14-27.45,26.14l26.39-1.09
							C1632.23,1489.76,1626.51,1472.36,1626.51,1472.36z"/>
					</g>
				</g>
				<g>
					<g>
						<path class="st9" d="M1558.95,1481.22c-4.67,1.53-8.86,4.35-17.17,7.38c-6.51,2.37-10.52,7.95,5.43,10.07
							c15.96,2.11,32.99,0.71,32.99,0.71S1566.95,1478.6,1558.95,1481.22z"/>
					</g>
				</g>
			</g>
			<g>
				<g>
					<path class="st12" d="M1530.33,1307.51c0,0,73.73,16.78,112.65-4.46c0,0-11.11-95.24-6.98-138.01
						c4.13-42.78-12.46-56.1-12.46-56.1l-104.14,6.48C1519.4,1115.42,1515.82,1221.85,1530.33,1307.51z"/>
				</g>
			</g>
			<g>
				<g>
					<path class="st21" d="M1641.67,981.59c0,0-116.13-37.62-121,3.61c-6.07,51.48-2.29,164.74-2.29,164.74s15.45,21.26,87.68,9.58
						c36.19-5.85,33.37-25.78,33.37-25.78C1598.66,1019.14,1641.67,981.59,1641.67,981.59z"/>
				</g>
			</g>
			<g>
				<g>
					<path class="st14" d="M1620.06,1043.32c-30.06,16.44-55.92,16.15-65.46,15.3c-2.54-0.23-3.93-0.49-3.93-0.49l-4.87,29.4
						c0,0,124.32,9.03,126.86-17.45c3.64-37.96-22.23-80.38-36.15-97.56c-8.73-10.78-26.27,14.46-27.46,38.63
						C1608.34,1025.5,1625.53,1040.33,1620.06,1043.32z"/>
				</g>
			</g>
			<g>
				<g>
					<path class="st21" d="M1581.65,1057.1c-5.94,30.19,6.3,38.99,6.3,38.99s83.08-2.16,87.45-25.45
						c7.18-38.27-28.32-97.68-49.58-110.68c-21.26-13-55.44-14.75-55.44-14.75L1581.65,1057.1z"/>
				</g>
			</g>
			<g>
				<g>
					<path class="st9" d="M1571.86,879.32c-0.82,3.37-1.59,6.77-2.3,10.17c-3.05,14.56-5.05,29.34-5.99,44.18
						c-0.07,1.15-0.1,2.43,0.65,3.31c0.56,0.66,1.44,0.93,2.28,1.18c25.16,7.26,51.75,9.53,77.78,6.7c0.22-0.02,0.44-0.05,0.66-0.07
						c1.27-0.14,2.54-0.29,3.81-0.46c0.22-0.03,0.45-0.06,0.67-0.09c1.46-0.2,2.91-0.41,4.36-0.64c0.66-0.1,1.33-0.21,1.9-0.55
						c0.71-0.43,1.18-1.16,1.6-1.88c7.16-12.4,5.36-29.32-4.23-39.94c-4.95-5.48-11.56-9.24-16.57-14.65
						c-3.76-4.07-6.52-9.77-6.13-15.08c0.13-1.76,0.61-3.48,1.51-5.08l-14.64,1.99l-6.58,0.89l-12.29,1.67
						c-9.07,1.3-18.14,2.6-27.21,3.9C1572.48,875.72,1572.24,877.75,1571.86,879.32z"/>
				</g>
			</g>
			<g>
				<g>
					<g>
						<path class="st31" d="M1634.73,897.94c4.24,3.49,8.41,7.25,11.34,11.96c2.99,4.81,4.33,10.39,4.57,16.01
							c0.27,6.19-0.67,12.35-1.89,18.4c0.22-0.03,0.45-0.06,0.67-0.09c1.98-9.85,3.31-20.56-0.51-30.12
							c-1.88-4.7-5.02-8.68-8.65-12.17c-3.85-3.7-9.09-6.67-11.68-11.47c-2.87-5.31-2.2-11.73-0.69-17.37l0,0
							c0.05-0.2,0.11-0.4,0.16-0.6c0.02-0.08,0.04-0.16,0.07-0.24c0.01-0.05,0.02-0.1,0.01-0.14c-0.05-0.29-0.53-0.38-0.62-0.03
							c-0.06,0.22-0.12,0.44-0.18,0.66c0,0.01,0,0.01-0.01,0.02c-0.12,0.43-0.23,0.86-0.33,1.29l0,0
							c-0.98,4.03-1.43,8.25-0.56,12.32C1627.5,891.48,1630.85,894.74,1634.73,897.94z"/>
					</g>
				</g>
			</g>
			<g>
				<g>
					<g>
						<path class="st31" d="M1633.64,911.57c3.93,4.62,7.3,9.49,9.2,15.31c1.9,5.8,2.38,11.97,1.43,17.97
							c0.22-0.02,0.44-0.05,0.66-0.07c1.48-9.79-0.8-19.97-6.51-28.14c-5.97-8.54-15.86-15.83-16.69-26.99
							c-0.42-5.68,1.52-11.33,5.24-15.58c0.29-0.33,0.59-0.65,0.91-0.96c0.15-0.15,0.3-0.3,0.46-0.45c0.1-0.09,0.12-0.2,0.08-0.3
							c-0.04-0.13-0.16-0.23-0.3-0.24c-0.08-0.01-0.16,0.01-0.24,0.08c-0.19,0.18-0.37,0.36-0.55,0.54
							c-0.01,0.01-0.02,0.02-0.03,0.03c-7.03,7.16-7.99,17.95-3.08,26.62C1626.76,903.86,1630.32,907.66,1633.64,911.57z"/>
					</g>
				</g>
			</g>
			<g>
				<g>
					<path class="st9" d="M1611.03,869.95c1.8,1.78,4.33,2.95,7.14,3.44c1.97,0.35,4.08,0.37,6.17,0.04
						c0.41-0.06,0.82-0.14,1.23-0.23c0.59-0.13,1.17-0.28,1.74-0.47c0.01,0,0.01,0,0.02-0.01c0.24-0.07,0.47-0.16,0.71-0.24
						c0.13-0.05,0.25-0.09,0.38-0.14c0.15-0.06,0.3-0.12,0.45-0.18c0.5-0.21,0.99-0.44,1.46-0.69c4.8-2.52,8.37-6.99,9.26-11.48
						c0.04-0.21,0.08-0.43,0.11-0.65c0.07-0.5,0.11-1.01,0.11-1.5c0-1.13-0.17-2.23-0.47-3.29c-0.06-0.2-0.12-0.41-0.19-0.61
						c-0.48-1.47-1.19-2.86-1.99-4.18c-0.85-1.39-1.83-2.73-2.96-3.96c-0.25-0.28-0.5-0.55-0.77-0.81c-1.9-1.91-4.16-3.53-6.83-4.65
						c-4.69-1.97-10.73-2.26-16.12-0.11c-3.88,1.55-7.27,4.5-8.94,7.81c-0.2,0.4-0.38,0.8-0.53,1.21c-0.09,0.24-0.17,0.48-0.24,0.73
						c-0.19,0.67-0.31,1.35-0.34,2.02l10.2,17.27L1611.03,869.95z"/>
				</g>
			</g>
			<g>
				<g>
					<path class="st9" d="M1561.01,853.3c-4.14,2.48-8.02,5.99-9.23,10.66l16.57,23.77c3.74,5.74,8.48,10.84,13.93,14.99
						c3.14,2.38,6.69,4.52,10.63,4.76c3.79,0.23,7.43-1.32,10.87-2.93c3.84-1.8,23.31-17.83,10.14-44.94
						c-1.09-2.24-2.97-4.04-4.94-5.56c-2.22-1.72-4.83-2.87-7.47-3.82C1588.33,845.53,1573.01,846.11,1561.01,853.3z"/>
				</g>
			</g>
			<g>
				<g>
					<path class="st14" d="M1577.17,911.18l-1.77,0.73l-15.38,6.37c0,0,1.53,6.16,1.74,14.94c0.09,3.86-0.08,8.23-0.75,12.79
						c-0.09,0.64-0.22,1.26-0.37,1.88c-1.54,6.39-7.23,20.81,3.51,20.49c19.46-0.57,27.23-18.16,26.08-24.24
						c-4.5-23.93-4.47-36.46-4.47-36.51L1577.17,911.18z"/>
				</g>
			</g>
			<g>
				<g>
					<path class="st16" d="M1560.65,947.89c5.55-3.97,14.78-12.63,14.95-26.28c0-0.19,0-0.39,0-0.58c0,0-0.7,0.65-1.83,1.69
						c-2.72,2.5-7.94,7.24-12.02,10.51c0.09,3.86-0.08,8.23-0.75,12.79C1560.92,946.65,1560.79,947.28,1560.65,947.89z"/>
				</g>
			</g>
			<g>
				<g>
					<path class="st14" d="M1545.03,881.38c-9.95,15.54-12.06,56.73,12.43,54.47c24.48-2.27,35.21-32.81,35.21-32.81
						C1600.18,848.66,1554.98,865.83,1545.03,881.38z"/>
				</g>
			</g>
			<g>
				<g>
					<g>
						<path class="st15" d="M1587.26,913.35c-3.69,7.06-9.08,13.03-15.72,17.42c-0.34,0.22-0.02,0.78,0.32,0.55
							c6.73-4.45,12.21-10.5,15.95-17.65C1588,913.31,1587.45,912.99,1587.26,913.35z"/>
					</g>
				</g>
			</g>
			<g>
				<g>
					<g>
						<path class="st15" d="M1560.45,915.37c-2.33,2.92-8.58,7.25-11.8,3.13c-0.25-0.32-0.7,0.13-0.45,0.45
							c3.45,4.41,10.17,0.05,12.7-3.13C1561.15,915.5,1560.7,915.05,1560.45,915.37z"/>
					</g>
				</g>
			</g>
			<g>
				<g>
					<g>
						<path class="st15" d="M1551.37,907.54c0.77-1.9,1.71-3.94,1.83-6.02c0.18-2.97-2.22-5.27-5.2-4.47
							c-0.4,0.11-0.23,0.72,0.17,0.61c3.16-0.84,4.8,2.08,4.25,4.86c-0.39,1.97-1.26,3.84-2.01,5.69c-0.45,1.11-1.59,3.04-1.27,4.28
							c0.29,1.11,1.68,1.02,2.53,1.34c0.38,0.15,0.55-0.47,0.17-0.61c-0.33-0.13-1-0.15-1.29-0.31c-1.11-0.63-0.65-1.42-0.38-2.24
							C1550.52,909.61,1550.95,908.58,1551.37,907.54z"/>
					</g>
				</g>
			</g>
			<g>
				<g>
					<path class="st9" d="M1560.7,895.32c-0.27,1.13,1.25,1.74,3.19,2.2c1.94,0.46,3.57,0.59,3.84-0.54c0.27-1.13-1-2.8-2.94-3.25
						C1562.85,893.27,1560.97,894.19,1560.7,895.32z"/>
				</g>
			</g>
			<g>
				<g>
					<path class="st9" d="M1547.84,892.04c-1.98,0.2-3.46,1.69-3.34,2.84c0.12,1.15,1.75,1.24,3.73,1.03
						c1.98-0.2,3.57-0.61,3.45-1.76C1551.56,893,1549.82,891.84,1547.84,892.04z"/>
				</g>
			</g>
			<g>
				<g>
					<path class="st12" d="M1561.84,903.66c-0.22,1.33,0.36,2.53,1.29,2.69c0.93,0.15,1.86-0.8,2.08-2.13
						c0.22-1.33-0.36-2.53-1.29-2.69C1562.99,901.37,1562.06,902.33,1561.84,903.66z"/>
				</g>
			</g>
			<g>
				<g>
					<path class="st12" d="M1547.42,903.09c-0.22,1.33,0.36,2.53,1.29,2.69c0.93,0.15,1.86-0.8,2.08-2.13
						c0.22-1.33-0.36-2.53-1.29-2.69C1548.57,900.81,1547.64,901.76,1547.42,903.09z"/>
				</g>
			</g>
			<g>
				<g>
					<path class="st9" d="M1569.89,863.6c-5.9-3.29-12.92-4.06-19.65-3.5c-19.32,1.59-26.43,7.99-27.79,14.53
						c-0.11,0.51-0.18,1.02-0.22,1.54c-0.45,5.87,3.35,11.54,6.69,13.59c4.56,2.8,10.49,2.24,15.61,0.72
						c5.12-1.53,9.8-4.21,14.64-6.5c4.55-2.15,10-3.94,14.46-1.6l-2.67-13.4l-0.13-0.67L1569.89,863.6z"/>
				</g>
			</g>
			<g>
				<g>
					<path class="st9" d="M1568.98,865.74l4.65,16.63c0,0,8.08,3.61,5.66,19.67c0,0,9.1,11.5,22.34,3.48
						c13.25-8.02-5.25-33.15-5.67-33.41c-0.42-0.26-9.65-8.06-9.65-8.06L1568.98,865.74z"/>
				</g>
			</g>
			<g>
				<g>
					<path class="st14" d="M1577.47,908.21c2.17,3.52,7.51,4.17,11.94,1.44c4.43-2.72,6.27-7.79,4.11-11.31
						c-2.16-3.52-7.51-4.17-11.94-1.44C1577.14,899.62,1575.3,904.69,1577.47,908.21z"/>
				</g>
			</g>
			<g>
				<g>
					<g>
						<path class="st31" d="M1591.79,908.68c7.98,2.5,16.55-1.27,21.79-7.42c6.49-7.62,5.02-17.32,5.04-26.59
							c0-0.41-0.64-0.41-0.64,0c-0.01,8.85,1.5,18.35-4.52,25.75c-5.06,6.22-13.56,10.13-21.5,7.65
							C1591.57,907.95,1591.4,908.56,1591.79,908.68z"/>
					</g>
				</g>
			</g>
			<g>
				<g>
					<g>
						<path class="st15" d="M1580.78,911.02c-0.41-0.05-0.4,0.59,0,0.64c3.41,0.42,7.43-0.55,10.25-2.56
							c2.21-1.57,3.2-4.07,3.66-6.65c0.07-0.4-0.54-0.57-0.61-0.17c-0.46,2.57-1.43,5.05-3.73,6.51
							C1587.63,910.53,1583.97,911.41,1580.78,911.02z"/>
					</g>
				</g>
			</g>
			<g>
				<g>
					<g>
						<path class="st31" d="M1612.32,864.09c0.85-0.76,1.76-1.41,2.74-1.97c3.9-2.23,8.7-2.99,13.08-3.38
							c3.69-0.33,7.93-0.25,11.44,1.26c0.04-0.21,0.08-0.43,0.11-0.65c-3.57-1.48-7.84-1.57-11.55-1.24
							c-4.49,0.4-9.34,1.17-13.34,3.43c-1.05,0.59-2.04,1.29-2.94,2.1C1611.56,863.91,1612.01,864.36,1612.32,864.09z"/>
					</g>
				</g>
			</g>
			<g>
				<g>
					<g>
						<path class="st31" d="M1631.18,856.19c2.81,0.11,5.55-0.6,8.16-1.65c-0.06-0.2-0.12-0.41-0.19-0.61
							c-4.27,1.7-9.26,2.73-13.08,0.08c-1.39-0.96-2.52-2.55-1.93-4.27c0.58-1.65,2.08-3.4,3.79-3.92c1.95-0.59,4.18-0.51,6.27-0.02
							c-0.25-0.28-0.5-0.55-0.77-0.81c-2.13-0.39-4.35-0.35-6.22,0.41c-2.56,1.03-4.83,4.44-3.4,7.09
							C1625.2,855.06,1628.43,856.07,1631.18,856.19z"/>
					</g>
				</g>
			</g>
			<g>
				<g>
					<g>
						<path class="st31" d="M1580.11,891.79c2.99-4.55,6.2-9.68,5.15-15.38c-0.93-5.04-5.44-7.95-10.33-8.28
							c-1.37-0.09-2.74-0.02-4.1,0.18c-4.76,0.68-9.44,2.86-13.73,4.69c-6.01,2.55-11.99,5.34-18.4,6.76
							c-3.53,0.78-7.61,1.44-11.14,0.34c-2.47-0.77-4.75-2.97-5.1-5.47c-0.11,0.51-0.18,1.02-0.22,1.54
							c0.85,2.03,2.76,3.74,4.89,4.45c5.4,1.83,12.06-0.06,17.24-1.8c5.97-2.01,11.63-4.81,17.49-7.1c2.76-1.08,5.93-2.24,9.1-2.75
							c3.73-0.6,7.47-0.27,10.55,2.22c6.82,5.52,1.75,14.64-1.95,20.27C1579.33,891.81,1579.88,892.13,1580.11,891.79z"/>
					</g>
				</g>
			</g>
			<g>
				<g>
					<path class="st15" d="M1561.3,1480.47c7.04-5.43,14.03-10.51,18.91-18.11c4.96-7.71,8.93-16.97,10.7-25.98
						c0.52-2.63,0.38-5.41,0.26-8.07c-0.19-4.4-0.62-8.79-1.1-13.17c-2.58-23.76-6.63-47.35-10.2-70.97
						c-1.27-8.42-3.09-17.11-3.24-25.65c-0.01-0.31-0.48-0.31-0.48,0c0.12,6.8,1.47,13.68,2.45,20.38
						c1.69,11.46,3.5,22.91,5.24,34.36c1.82,11.97,3.6,23.94,5.06,35.96c0.98,8.05,2.24,16.39,1.81,24.52
						c-0.12,2.38-0.76,4.62-1.43,6.91c-1.65,5.67-3.85,11.19-6.59,16.42c-2.5,4.79-5.54,9.34-9.42,13.13
						c-3.74,3.65-8.11,6.66-12.24,9.85C1560.82,1480.24,1561.06,1480.66,1561.3,1480.47L1561.3,1480.47z"/>
				</g>
			</g>
			<g>
				<path class="st14" d="M1559.46,1060.57c0,0-9.9-8.19-17.86-7.55s2.09,8.2,2.09,8.2L1559.46,1060.57z"/>
			</g>
			<g>
				<g>
					<g>
						<path class="st32" d="M1520.32,1019.56l-14.33-0.02l-13.7,5.47l-1.99,14.69l40.07-2.1
							C1532.65,1019.25,1520.32,1019.56,1520.32,1019.56z"/>
					</g>
				</g>
				<g>
					<g>
						<path class="st17" d="M1539.83,1031.58l-69.2,5.79c-2.35,0.2-4.04,2.19-3.61,4.29c1.63,8.14,5.29,27.48,6.65,43.71l3.71,44.33
							c0.17,1.98,2.08,3.44,4.27,3.26l66.34-5.55c2.05-0.17,3.64-1.72,3.68-3.59c0.14-6.93,0.2-24.13-1.53-44.85
							c-1.61-19.26-4.67-35.26-6.06-44.36C1543.79,1032.73,1541.93,1031.4,1539.83,1031.58z"/>
					</g>
				</g>
				<g>
					<g>
						<path class="st33" d="M1520.18,1019.55c0.09,0.01,0.14,0.01,0.14,0.01S1520.27,1019.55,1520.18,1019.55z"/>
					</g>
					<g>
						<path class="st33" d="M1520.18,1019.55c-2.45-0.16-37.23-2.26-50.99,4.89c-14.26,7.42-13.12,23.29-13.12,23.29
							c14.26,2.47,48.49-5.61,48.49-5.61C1500.93,1019.05,1518.43,1019.45,1520.18,1019.55z"/>
					</g>
				</g>
			</g>
			<g>
				<g>
					<g>
						<path class="st14" d="M1527.65,1063.48c-8.5,0.13-21.49,0.66-21.44,4c0.04,2.87,13.05,3.46,21.55,3.33
							c8.5-0.13,10.99-1.81,10.96-3.84C1538.69,1064.95,1536.15,1063.35,1527.65,1063.48z"/>
					</g>
				</g>
				<g>
					<g>
						<path class="st14" d="M1531.62,1071.1c-9.27,0.14-23.43,0.69-23.38,4.03c0.04,2.87,14.22,3.45,23.49,3.3
							c9.27-0.14,11.98-1.83,11.95-3.85C1543.66,1072.55,1540.89,1070.95,1531.62,1071.1z"/>
					</g>
				</g>
				<g>
					<g>
						<path class="st14" d="M1536.81,1078.18c-8.65,0.68-21.84,2.01-21.61,4.84c0.19,2.44,13.46,2.07,22.1,1.39
							c8.65-0.68,11.09-2.28,10.96-4C1548.13,1078.69,1545.46,1077.5,1536.81,1078.18z"/>
					</g>
				</g>
				<g>
					<g>
						<path class="st14" d="M1549.17,1081.55c-0.19-1.18-3.28,1.33-8.28,2.14c-5,0.81-12.6,2.23-12.29,4.17
							c0.27,1.67,19.46,0.18,24.46-0.63C1558.05,1086.42,1549.36,1082.72,1549.17,1081.55z"/>
					</g>
				</g>
				<g>
					<g>
						<path class="st14" d="M1516.71,1059.22c-0.22,2.86,13.86,4.77,23.13,5.49c9.26,0.73,12.13-0.69,12.29-2.71
							c0.16-2.02-2.45-3.87-11.71-4.6C1531.14,1056.68,1516.97,1055.9,1516.71,1059.22z"/>
					</g>
				</g>
				<g>
					<g>
						<path class="st14" d="M1530.98,1061.22c-2.76,0-5.01,2.41-5.01,5.35l4.27,12.86c0,2.94,2.56,7.09,5.31,7.09l15.88,0.77
							c6.73,0,12.23-5.87,12.23-13.05v-2.94c0-5.54-4.25-10.07-9.44-10.07H1530.98z"/>
					</g>
				</g>
			</g>
			<g>
				<g>
					<g>
						<path class="st15" d="M1428.09,965.4c1.84,2.3,3.09,4.9,3.77,7.77c0.08,0.33,0.59,0.19,0.51-0.14c-0.69-2.96-2-5.63-3.9-8
							C1428.25,964.76,1427.88,965.14,1428.09,965.4z"/>
					</g>
				</g>
			</g>
			<g>
				<g>
					<g>
						<path class="st14" d="M1396.24,962.49c-1.99,2.41,5.88,10.05,11.39,14.62s8.29,4.54,9.69,2.84c1.41-1.7,0.92-4.43-4.6-8.99
							C1407.22,966.39,1398.56,959.69,1396.24,962.49z"/>
					</g>
				</g>
				<g>
					<g>
						<path class="st14" d="M1401.62,954c-2.68,1.6,2.18,11.44,5.86,17.58c3.67,6.15,6.3,7.04,8.19,5.91
							c1.89-1.13,2.35-3.87-1.33-10.01C1410.67,961.33,1404.75,952.13,1401.62,954z"/>
					</g>
				</g>
				<g>
					<g>
						<path class="st14" d="M1409.04,952.72c-2.66,1.64,2.35,11.4,6.12,17.49c3.77,6.09,6.4,6.95,8.28,5.79
							c1.88-1.16,2.29-3.9-1.48-9.99C1418.19,959.92,1412.13,950.81,1409.04,952.72z"/>
					</g>
				</g>
				<g>
					<g>
						<path class="st14" d="M1418.07,956.05c-2.21,1.49,2.37,9.64,5.77,14.71c3.4,5.07,5.68,5.72,7.24,4.67
							c1.56-1.05,1.82-3.4-1.58-8.47C1426.09,961.9,1420.64,954.33,1418.07,956.05z"/>
					</g>
				</g>
			</g>
			<g>
				<path class="st24" d="M1589.57,940.44c0,0,4.51-0.18,8.11,5.59c2.64,4.25,6.99,3.11,6.73,5.01
					c-0.26,1.89-14.16,34.53-33.33,33.84c0,0-2.02-2.31-0.93-7.73c1.08-5.42-2.41-9.06-2.41-9.06s-0.25-3.4,3.91-4.4
					s12.4-8.31,14.29-11.78C1587.8,948.43,1589.57,940.44,1589.57,940.44z"/>
			</g>
			<g>
				<path class="st24" d="M1561.31,943.73c0,0-7.28-0.43-11.8,5.89c-2.72,3.8-4.03,18.58-4.16,23.52s0.43,8.08,2.69,4.35
					c2.27-3.73,8.2-12.51,10.16-10.9c1.96,1.61,2.49-3.84,1.51-6.48C1559.28,958.96,1561.31,943.73,1561.31,943.73z"/>
			</g>
			<g>
				<path class="st1" d="M1581.83,1057.75c12.16-3.01,24.53-6.64,35.8-12.19c2.25-1.11,7.39-3.09,8.62-5.48
					c0.85-1.66-0.88-4.18-1.43-5.68c-1.58-4.36-3.16-8.71-4.74-13.07c-0.29-0.81-1.6-0.46-1.3,0.36c1.13,3.11,2.26,6.22,3.38,9.34
					c0.78,2.15,3.5,6.8,2.39,8.78c-1.51,2.69-8.15,4.9-10.79,6.07c-10.34,4.57-21.33,7.86-32.29,10.58
					C1580.63,1056.66,1580.99,1057.96,1581.83,1057.75L1581.83,1057.75z"/>
			</g>
			<g>
				<path class="st1" d="M1581.95,1087.99c1.31,2.31,2.28,5.34,4.79,6.52c2.95,1.39,7.72,0.8,10.85,0.67
					c9.81-0.4,19.4-2.75,29.25-2.62c0.87,0.01,0.87-1.34,0-1.35c-7.57-0.1-14.96,1.18-22.45,2.04c-3.55,0.41-7.11,0.71-10.69,0.63
					c-2.71-0.06-5.93-0.02-8.05-2.08c-1.09-1.06-1.81-3.2-2.54-4.5C1582.69,1086.55,1581.52,1087.23,1581.95,1087.99
					L1581.95,1087.99z"/>
			</g>
		</g>
		<g>
			<g>
				<path class="st20" d="M921.33,1486.73c-0.09,4.01-0.21,7.92-0.19,11.55c0.01,2.16,1.54,4.03,3.67,4.45
					c5.37,1.07,10.98,0.99,16.49,0.89c17.9-0.31,35.8-0.62,53.7-0.93c1.84-0.03,3.9-0.14,4.92-1.99c0.65-1.17,0.56-2.6-0.06-3.78
					c-1.25-2.39-3.76-3.4-6.16-4.29c-11.62-4.31-24.23-8.65-32.95-16.98c-0.28-0.26-0.55-0.53-0.82-0.8
					c-1.84-1.86-3.49-3.92-4.9-6.22c-1.09-1.77-2.01-3.69-2.54-5.69c-0.19-0.69-0.33-1.39-0.41-2.1c-0.04-0.28-0.06-0.55-0.08-0.83
					l-6.32-0.28l-1.82-0.08l-24.43-1.08c1.67,6.18,2.03,13.44,2.01,20.73C921.44,1481.78,921.39,1484.27,921.33,1486.73z"/>
			</g>
		</g>
		<g>
			<g>
				<path class="st20" d="M795.26,1502.73c5.37,1.07,10.98,0.99,16.49,0.89c17.9-0.31,35.8-0.62,53.7-0.93
					c1.84-0.03,3.9-0.14,4.92-1.99c0.65-1.17,0.56-2.6-0.06-3.78c-1.25-2.39-3.76-3.4-6.16-4.29c-11.62-4.31-24.23-8.65-32.95-16.98
					c-0.28-0.26-0.55-0.53-0.82-0.8c-1.84-1.86-3.49-3.92-4.9-6.22c-1.09-1.77-2.01-3.69-2.54-5.69c-0.19-0.69-0.33-1.39-0.41-2.1
					c-0.04-0.28-0.06-0.55-0.08-0.83l-6.32-0.28l-1.82-0.08l-14.02-29.6c1.67,6.18-4.09,32.62-5.31,41.18
					C791.57,1495.13,793.14,1502.31,795.26,1502.73z"/>
			</g>
		</g>
		<g>
			<g>
				<path class="st12" d="M809.47,1471.22c-16.48-3.51-16.48-8.73-16.48-8.73s20.81-99.74,26.53-133.22
					c7.4-43.3,34.42-189.45,34.42-189.45l130.65,15.51c0,0-4.13,123.15-7.15,164.08c-2.77,37.53-15.98,149.73-15.98,149.73
					s-0.57,3.8-15.99,3.43c-24.15-0.58-26.04-6.2-26.04-6.2s2.33-87.72,1.69-115.92c-0.63-27.66-6.77-107.53-6.77-107.53
					s-21.69,70.44-29.93,93.58c-12.13,34.05-52.94,134.54-52.94,134.54S827.55,1475.07,809.47,1471.22z"/>
			</g>
		</g>
		<g>
			<g>
				<g>
					<path class="st13" d="M914.59,1243.89c1.05-6.12,2.59-12.15,4.67-18c1.07-3,2.27-5.95,3.6-8.84c1.24-2.68,2.46-6.07,5.25-7.48
						c0.35-0.18,0.04-0.7-0.31-0.53c-2.39,1.22-3.53,3.65-4.64,5.96c-1.41,2.91-2.68,5.89-3.82,8.92
						c-2.41,6.42-4.18,13.05-5.33,19.81C913.94,1244.11,914.53,1244.28,914.59,1243.89L914.59,1243.89z"/>
				</g>
			</g>
		</g>
		<g>
			<g>
				<g>
					<path class="st13" d="M851.27,1201.81c-1.88,10.19-3.83,20.37-5.75,30.55c-3.76,19.91-7.54,39.82-11.33,59.72
						c-4.45,23.4-8.92,46.8-13.41,70.19c-3.96,20.64-7.94,41.28-11.98,61.9c-2.28,11.63-4.43,23.31-7.05,34.87
						c-0.11,0.51-0.23,1.01-0.36,1.52c-0.1,0.38,0.49,0.54,0.59,0.16c2.52-10.03,4.24-20.3,6.24-30.44
						c3.92-19.88,7.75-39.77,11.58-59.67c4.5-23.39,8.97-46.79,13.42-70.19c3.93-20.65,7.85-41.3,11.76-61.95
						c2.21-11.65,4.42-23.31,6.59-34.97c0.1-0.51,0.19-1.02,0.29-1.53C851.93,1201.59,851.34,1201.43,851.27,1201.81L851.27,1201.81
						z"/>
				</g>
			</g>
		</g>
		<g>
			<g>
				<path class="st21" d="M865.95,948.5c0,0-6.96,131.57-21.43,209.41c0,0,3.27,9.93,40.03,12c102.81,5.8,99.78-6.57,99.78-6.57
					s-5.19-119.12-12.6-167.67c-4.88-31.97-35.48-59.49-71.34-58.13C876.45,938.44,865.95,948.5,865.95,948.5z"/>
			</g>
		</g>
		<g>
			<g>
				<g>
					<path class="st13" d="M851.48,1202.19c16.18,2.74,35.12-8.73,38.79-25.02c0.09-0.38-0.5-0.54-0.59-0.16
						c-3.59,15.94-22.17,27.28-38.04,24.6C851.26,1201.54,851.1,1202.12,851.48,1202.19L851.48,1202.19z"/>
				</g>
			</g>
		</g>
		<g>
			<path class="st17" d="M902.72,852.45c0,0-20.58,2.08-22.58,25.49c-1.78,20.92,21.76,45.11,33.32,43
				C925.02,918.84,906.38,853.8,902.72,852.45z"/>
		</g>
		<g>
			<path class="st14" d="M915.61,960.84c19.4,2,12.71-10,11.81-14.27c-0.05-0.23-0.09-0.47-0.13-0.73
				c-0.23-1.57-0.29-3.66-0.24-5.98c0.04-2.19,0.19-4.6,0.38-6.95c0.01-0.14,0.02-0.28,0.04-0.42c0.15-1.85,0.33-3.67,0.51-5.33
				c0.2-1.87,0.41-3.54,0.57-4.85c0.22-1.75,0.38-2.83,0.38-2.83l-14.75-9.28l-1.7-1.07l-8.24-5.18
				c-0.01,0.05-2.18,12.99-11.02,36.88C890.98,946.93,895.35,958.76,915.61,960.84z"/>
		</g>
		<g>
			<g>
				<path class="st15" d="M927.3,945.86v-0.02c-0.23-1.57-0.29-3.66-0.24-5.98c0.04-2.19,0.19-4.6,0.38-6.95
					c0.01-0.14,0.02-0.28,0.04-0.42c-3.93-2.98-10.53-9.27-13.62-12.28c-1.06-1.02-1.7-1.66-1.7-1.66
					c-0.02,0.18-2.05-1.24-2.06-1.06C909.3,931.76,920.88,943.64,927.3,945.86z"/>
			</g>
		</g>
		<g>
			<path class="st14" d="M904.35,899.82c0,0,0.48,36.44,31.05,36.41c30.07-0.04,24.7-22.35,20.77-54.1
				C953.8,862.96,902.07,842.43,904.35,899.82z"/>
		</g>
		<g>
			<g>
				<path class="st15" d="M907.2,916.86c3.75,7.57,9.31,14.03,16.26,18.84c0.32,0.22,0.72-0.24,0.4-0.46
					c-6.85-4.74-12.38-11.11-16.08-18.57C907.61,916.32,907.03,916.51,907.2,916.86L907.2,916.86z"/>
			</g>
		</g>
		<g>
			<g>
				<path class="st25" d="M931.18,914.96c3.11,4.52,8.48,7.35,13.92,5.38c0.4-0.15,0.24-0.8-0.17-0.65
					c-5.16,1.87-10.21-0.78-13.16-5.06C931.52,914.27,930.93,914.6,931.18,914.96L931.18,914.96z"/>
			</g>
		</g>
		<g>
			<g>
				<path class="st25" d="M940.06,895.83c-1.13,2.51-0.43,5.27,0.26,7.81c0.47,1.71,1.04,3.39,1.46,5.11
					c0.23,0.93,0.96,2.46-0.23,3.04c-0.48,0.23-1.36,0.14-1.91,0.29c-0.42,0.11-0.25,0.77,0.17,0.65c0.87-0.24,2.14-0.03,2.79-0.82
					c0.68-0.84,0.06-2.44-0.16-3.33c-0.91-3.72-3.5-8.63-1.8-12.41C940.82,895.78,940.24,895.44,940.06,895.83L940.06,895.83z"/>
			</g>
		</g>
		<g>
			<path class="st26" d="M935.16,891.69c0.33,1.75-2.45,2.66-5.97,3.31c-3.52,0.65-6.44,0.81-6.76-0.94
				c-0.33-1.75,2.15-4.3,5.67-4.96C931.6,888.45,934.83,889.94,935.16,891.69z"/>
		</g>
		<g>
			<path class="st26" d="M955.32,891.93c-0.01,1.78-3.12,2.15-6.96,2.13c-3.84-0.02-6.95-0.42-6.94-2.2
				c0.01-1.78,3.13-3.82,6.97-3.8C952.23,888.08,955.33,890.15,955.32,891.93z"/>
		</g>
		<g>
			<path class="st17" d="M933,902.31c0.1,1.56-0.7,2.88-1.79,2.95c-1.09,0.07-2.06-1.14-2.16-2.7c-0.1-1.56,0.7-2.88,1.79-2.95
				C931.94,899.54,932.9,900.75,933,902.31z"/>
		</g>
		<g>
			<path class="st17" d="M947.76,900.37c0.1,1.56-0.7,2.88-1.79,2.95c-1.09,0.07-2.06-1.14-2.16-2.7c-0.1-1.56,0.7-2.88,1.79-2.95
				C946.69,897.6,947.66,898.81,947.76,900.37z"/>
		</g>
		<g>
			<path class="st17" d="M898.76,897.83c1.1,0.28,2.09,0.89,3.2,1.12c3.33,0.71,6.93,0.18,9.86-1.56c3.66-2.17,6.24-6.36,5.86-10.61
				c-0.19-2.12-0.86-4.18-1.65-6.16c-0.01-0.03-0.03-0.07-0.04-0.1c-1.25-3.2,1.37-6.64,4.79-6.27c1.56,0.17,3.1,0.54,4.32,0.98
				c4.69,1.69,9.29,3.64,13.76,5.85c2.95,1.46,6.08,2.54,9.31,3.15c16.04,3.01,17.92-8.26,13.05-16.66
				c-2.81-4.84-12.17-10.33-20.51-10.27c0,0,10.13-0.66,9.53-5.7c-0.94-8.01-34.7-10.57-47.52,0.83c0,0-11.86,3.12-14.29,12.9
				C886,875.14,889.51,895.52,898.76,897.83z"/>
		</g>
		<g>
			<g>
				<path class="st14" d="M897.4,896.16c2.61-3.45,8.25-3.57,12.59-0.28c4.34,3.29,5.74,8.75,3.12,12.2
					c-2.61,3.45-8.25,3.57-12.59,0.28C896.19,905.07,894.79,899.61,897.4,896.16z"/>
			</g>
		</g>
		<g>
			<g>
				<g>
					<path class="st15" d="M895.78,900.26c0.25,2.99,1.14,5.9,3.65,7.75c2.77,2.05,6.46,3.39,9.91,3.29
						c0.39-0.01,0.4-0.62,0.01-0.61c-3.12,0.09-6.16-1.03-8.79-2.66c-2.81-1.74-3.9-4.56-4.17-7.76
						C896.36,899.88,895.75,899.87,895.78,900.26L895.78,900.26z"/>
				</g>
			</g>
		</g>
		<g>
			<g>
				<path class="st15" d="M906.94,900.71c0.62,0.65,1.18,1.43,0.78,2.36c-0.13,0.29-0.4,0.53-0.53,0.83
					c-0.36,0.81-0.34,1.68-0.04,2.5c0.14,0.41,0.8,0.24,0.65-0.17c-0.33-0.92-0.23-1.76,0.33-2.57c0.23-0.33,0.53-0.6,0.59-1.02
					c0.11-0.88-0.75-1.82-1.3-2.4C907.12,899.92,906.64,900.4,906.94,900.71L906.94,900.71z"/>
			</g>
		</g>
		<g>
			<g>
				<path class="st15" d="M908.63,895.43c0.79,0.4,1.48,0.96,2.02,1.66c0.26,0.34,0.85,0.01,0.58-0.34
					c-0.61-0.8-1.36-1.45-2.26-1.91C908.58,894.66,908.24,895.24,908.63,895.43L908.63,895.43z"/>
			</g>
		</g>
		<g>
			<path class="st34" d="M927.19,969.26c0,0,18.32,129.98,15.69,174.25c-0.12,2.03-0.91,3.94-2.23,5.41l-11.99,13.47
				c-1.53,1.72-4.13,1.71-5.65-0.02l-13.54-13.6c-1.57-1.58-2.4-3.81-2.25-6.09c1.52-23.78,9.93-158.23,6.13-173.33L927.19,969.26z"
				/>
		</g>
		<g>
			<path class="st11" d="M900.38,1044.38l-22.16-101.16c1.93-2.1-12.96,1.31-23.72,9.28c-26.3,19.5-70.22,82.69-71.64,124.89
				c-0.99,29.48,56.52,47.54,56.52,47.54l-7.48,76.67c0,0,11.15,6.86,60.79,6.12C892.7,1207.71,900.38,1119.97,900.38,1044.38z"/>
		</g>
		<g>
			<path class="st11" d="M931.77,940.88c0,0,28.7,2.39,39.76,17.27c11.06,14.88,50.27,66.91,56.08,109.34
				c11.15,81.37-44.97,61.86-44.97,61.86l-19.46-82.01l-21.05-29.78L931.77,940.88z"/>
		</g>
		<g>
			<path class="st22" d="M885.56,939.11c0,0,21.18,53.11,14.82,105.27c0,0-15.15-24.85-17.83-42.95c0,0,3.89-2.31,4.6-4.08
				c0,0-4.79-2.48-6.92-2.13c0,0-18.95-35.53-13.55-49.58C866.69,945.63,878.82,939.09,885.56,939.11z"/>
		</g>
		<g>
			<g>
				<path class="st13" d="M838.19,1125.36c8.09,2.92,16.01,6.28,24.23,8.84c0.55,0.17,0.78-0.69,0.24-0.86
					c-8.21-2.56-16.14-5.92-24.23-8.84C837.89,1124.31,837.66,1125.16,838.19,1125.36L838.19,1125.36z"/>
			</g>
		</g>
		<g>
			<g>
				<path class="st13" d="M872.75,1090.72c-8.83-6.63-17.7-13.15-26.86-19.32c-1.38-0.93-2.76-1.85-4.14-2.78
					c-0.61-0.41-2.88-1.55-2.93-1.79c-0.13-0.74,1.61-3.16,1.94-3.81c1.41-2.77,2.82-5.55,4.23-8.32c0.26-0.51-0.51-0.96-0.77-0.45
					c-2.1,4.13-4.2,8.26-6.3,12.38c-0.11,0.22-0.05,0.47,0.16,0.61c11.65,7.79,23.01,15.84,34.22,24.24
					C872.76,1091.83,873.2,1091.06,872.75,1090.72L872.75,1090.72z"/>
			</g>
		</g>
		<g>
			<path class="st11" d="M946.11,1045.33l9.21,157.26c0,0,30.76,4.01,42.01-2.34l-11.85-208.77l-39.37,11.96V1045.33z"/>
		</g>
		<g>
			<path class="st22" d="M932.82,939.11c0,0-1.49,62.13,13.29,106.23c0,0,7.06-28.23,4.22-46.31c0,0-4.4-1.04-5.61-2.53
				c0,0,3.83-3.8,5.97-4.09c0,0,9.18-35.73-0.16-47.54C950.54,944.87,943.45,940.94,932.82,939.11z"/>
		</g>
		<g>
			<g>
				<path class="st9" d="M928.39,963.65c0,0-0.27-4-4.96-3.32c-4.69,0.68-9.18-0.99-10.77-0.08c-1.6,0.91-3.05,3.56-1.97,6.72
					c1.08,3.15,6.14,8.89,10.49,8.37C925.52,974.83,929.31,966.84,928.39,963.65z"/>
			</g>
			<g>
				<path class="st24" d="M897.11,929.84c0,0-1.73-1.48-6.67,3.88c-3.38,3.67-7.71,4.77-7.88,6.67c-0.17,1.9,6.61,31.3,25.4,34.96
					c0,0,2.48-1.79,2.65-7.3c0.17-5.51,4.48-8.03,4.48-8.03s0.92-3.48-2.9-5.39c-3.82-1.92-9.11-11.35-11.22-14.67
					C898.6,936.23,897.11,929.84,897.11,929.84z"/>
			</g>
			<g>
				<path class="st24" d="M927.19,936.56c0,0,7.45,0.58,9.67,9.4c1.14,4.52-0.28,18.96-1.27,23.79c-1,4.83-2.24,7.76-3.6,3.62
					s-5.31-13-7.76-13.12c-2.52-0.12,0.43-3.67,1.01-6.84C927.18,942.68,927.19,936.56,927.19,936.56z"/>
			</g>
		</g>
		<g>
			<polygon class="st18" points="1161.47,1082.89 1134.3,1082.89 1133.14,1043.67 1160.32,1043.67 			"/>
			<polygon class="st9" points="1202.24,1082.89 1175.06,1082.89 1173.24,1021.23 1200.42,1021.23 			"/>
			<polygon class="st18" points="1243,1082.89 1215.82,1082.89 1212.91,984.2 1240.09,984.2 			"/>
			<polygon class="st9" points="1283.76,1082.89 1256.58,1082.89 1254.19,1002.03 1281.37,1002.03 			"/>
			<polygon class="st18" points="1324.52,1082.89 1297.34,1082.89 1293.97,968.77 1321.15,968.77 			"/>
		</g>
		<g>
			<g>
				<path class="st18" d="M1271.78,1148.48l-45.17,54.15l-23.73,66.8c-5.88-2.24-11.41-5.21-16.48-8.81
					c-18.34-13-30.63-34.13-31.33-58c-1.16-39.51,29.91-71.54,69.44-71.54C1242.38,1131.08,1258.92,1137.64,1271.78,1148.48z"/>
				<path class="st9" d="M1310.94,1199.24c0.12,3.91-0.08,7.75-0.59,11.49l-70.96-11.49l45.17-54.15
					C1300.13,1158.21,1310.3,1177.6,1310.94,1199.24z"/>
			</g>
			<path class="st11" d="M1307.68,1219.51c-4.47,34.07-33.23,60.08-68.86,60.08c-9.05,0-17.78-1.69-25.84-4.76l23.73-66.8
				L1307.68,1219.51z"/>
		</g>
		<path class="st13" d="M995.8,1152.78l-91.1-1.14c0,0-2.31-25.41-2.63-60.71c-0.24-27.1,8.15-60.58,8.15-60.58l92.49,1.16
			c0,0-8.92,32.56-9.27,60.56C993.26,1107.26,995.8,1152.78,995.8,1152.78z"/>
		<g>
			<g>
				<g>
					<path class="st12" d="M858.91,1127.11c0.09,0.73,0.2,1.43,0.36,2.06c0.6,2.45,1.69,4.1,3.27,4.6c0.25,0.08,0.51,0.13,0.78,0.15
						c0,0,0,0,0.01,0c1,0.07,2.09-0.29,3.21-1.02c2.45-1.58,5.07-4.91,7.36-9.33c0,0,0,0,0,0c1.31-2.54,2.51-5.44,3.51-8.58
						c0,0,0-0.01,0-0.02c0.27-0.84,0.51-1.67,0.73-2.5c1.08-4.05,1.63-7.91,1.67-11.2c0.05-3.98-0.64-7.15-2.01-8.9
						c-0.17-0.22-0.36-0.43-0.56-0.6c-0.38-0.34-0.81-0.59-1.28-0.74c-1.36-0.43-2.91,0.05-4.51,1.26c-2.53,1.9-5.19,5.6-7.46,10.4
						c-0.02,0.04-0.03,0.07-0.05,0.1c-1.01,2.16-1.94,4.53-2.74,7.06c-0.8,2.53-1.4,5.01-1.81,7.35
						C858.74,1120.95,858.58,1124.36,858.91,1127.11z"/>
				</g>
			</g>
			<g>
				<g>
					<path class="st14" d="M859.39,1117.21c4.21-0.8,11.21,0.02,16.11-0.39c0.01,0-2.47-2.9-2.47-2.9c0.69-0.19,1.33-0.36,1.92-0.53
						c1.45-0.41,2.58-0.73,3.19-0.91c0.33-0.09,0.5-0.14,0.5-0.14l6.07-21.23l0,0l-13.27,1.19c-2.53,1.9-5.19,5.6-7.46,10.4
						c-0.02,0.04-0.03,0.07-0.05,0.1c-1.01,2.16-1.94,4.53-2.74,7.06C860.4,1112.39,859.79,1114.86,859.39,1117.21z"/>
				</g>
			</g>
			<g>
				<g>
					<g>
						<path class="st13" d="M874.15,1090.41c-2.55,0.88-4.55,2.99-6.16,5.07c-2.28,2.94-4.06,6.29-5.52,9.71
							c-2.85,6.65-5.27,14.66-4.12,21.96c0.43,2.75,1.55,5.46,4.06,6.89c0.34,0.19,0.6-0.36,0.26-0.55
							c-5.26-2.98-4.2-11.44-3.27-16.33c1.33-7.05,4.05-14.21,8.19-20.11c1.71-2.43,3.87-5.07,6.78-6.07
							C874.73,1090.86,874.52,1090.29,874.15,1090.41L874.15,1090.41z"/>
					</g>
				</g>
			</g>
			<g>
				<g>
					<g>
						<path class="st14" d="M874.04,1116.51c2.04,0.56,4.2,0.61,6.28,0.22c3.32-0.62,6.45-2.38,8.58-5.02
							c1.23-1.52,2.13-3.28,3.27-4.87c1.76-2.5,4.1-4.57,6.77-6.06c0.08,0.01,0.15,0.03,0.22,0.04c2.36,0.41,4.66,1.13,7.04,1.48
							c2.87,0.42,6.06,0.18,8.29-1.68c0.24-0.2,0.48-0.44,0.56-0.74c0.18-0.7-0.53-1.3-1.15-1.67c-3.48-2.1-7.22-3.97-11.08-5.38
							c0.14,0.01,0.29,0.02,0.43,0.03c2.89,0.3,5.67,1.28,8.54,1.71c2.87,0.42,6.06,0.18,8.29-1.68c0.24-0.2,0.48-0.44,0.56-0.74
							c0.18-0.7-0.53-1.3-1.15-1.68c-2.51-1.51-5.15-2.9-7.88-4.09c1.19,0.16,2.38,0.31,3.58,0.36c2.9,0.13,6.04-0.43,8.08-2.5
							c0.22-0.23,0.44-0.49,0.49-0.8c0.11-0.72-0.66-1.24-1.32-1.55c-5.33-2.51-11.14-4.54-16.98-5.28
							c1.07-0.32,2.16-0.58,3.27-0.73c2.66-0.34,5.36-0.04,8.03-0.27c2.67-0.23,5.48-1.12,7.09-3.26c0.18-0.23,0.34-0.49,0.35-0.78
							c0.02-0.67-0.75-1.06-1.39-1.26c-8.38-2.69-17.79-4.06-25.96-1.23c-1.33,0.46-2.63,1.03-3.89,1.72
							c-3.89,2.15-7.1,5.35-10.14,8.6c-3.11,3.33-6.11,6.78-8.98,10.32c-1.32,1.69-2.69,3.37-3.94,5.06
							c-0.12,0.15-0.23,0.31-0.35,0.47c-4.3,5.96-6.81,12.07,0.54,19.35C871.24,1115.48,872.62,1116.12,874.04,1116.51z"/>
					</g>
				</g>
				<g>
					<g>
						<g>
							<path class="st15" d="M911.41,1085.54c-2.35-0.31-4.71-0.69-7.07-0.91c-1.7-0.16-3.33-0.08-4.86,0.73
								c-0.35,0.19-0.1,0.75,0.25,0.57c1.76-0.94,3.66-0.8,5.58-0.56c2.01,0.25,4.02,0.53,6.04,0.8
								C911.74,1086.21,911.8,1085.59,911.41,1085.54L911.41,1085.54z"/>
						</g>
					</g>
				</g>
				<g>
					<g>
						<g>
							<path class="st15" d="M903.31,1092.78c-2.69-1.16-5.74-0.96-8.25,0.56c-0.34,0.2-0.09,0.77,0.25,0.57
								c2.38-1.45,5.22-1.65,7.78-0.55C903.46,1093.52,903.67,1092.93,903.31,1092.78L903.31,1092.78z"/>
						</g>
					</g>
				</g>
				<g>
					<g>
						<g>
							<path class="st15" d="M905.53,1076.24c-2.33,0.15-4.64,0.08-6.96-0.22c-0.4-0.05-0.46,0.57-0.06,0.62
								c2.37,0.3,4.74,0.37,7.12,0.21C906.03,1076.82,905.93,1076.21,905.53,1076.24L905.53,1076.24z"/>
						</g>
					</g>
				</g>
			</g>
		</g>
		<g>
			<g>
				<path class="st14" d="M996.54,1116.41c7.08,1.68,8.09-0.49,8.76-3.3c0.67-2.81,0.74-5.21-6.34-6.89
					c-7.08-1.68-15.49-2.77-16.5,1.46C981.54,1111.6,989.47,1114.73,996.54,1116.41z"/>
			</g>
			<g>
				<path class="st14" d="M999.55,1107.29c8.29,1.97,9.38-0.18,10.05-2.99c0.67-2.81,0.66-5.22-7.63-7.2
					c-8.29-1.97-18.11-3.4-19.12,0.84C981.92,1101.86,991.26,1105.32,999.55,1107.29z"/>
			</g>
			<g>
				<path class="st14" d="M1001.77,1099.77c8.29,1.97,9.38-0.18,10.05-2.99c0.67-2.81,0.66-5.22-7.63-7.2
					c-8.29-1.97-18.11-3.4-19.12,0.84C984.15,1094.34,993.48,1097.8,1001.77,1099.77z"/>
			</g>
			<g>
				<path class="st14" d="M1003.02,1091.35c7.79,1.85,8.85-0.31,9.52-3.12c0.67-2.81,0.69-5.22-7.09-7.07
					c-7.79-1.85-17.03-3.14-18.03,1.09C986.48,1086.18,995.24,1089.5,1003.02,1091.35z"/>
			</g>
			<g>
				<g>
					<path class="st15" d="M1004.75,1107.82c-4.13-1.54-8.32-2.89-12.57-4.07c-0.55-0.15-0.68,0.73-0.13,0.88
						c4.17,1.16,8.29,2.49,12.35,4C1004.93,1108.83,1005.29,1108.02,1004.75,1107.82L1004.75,1107.82z"/>
				</g>
			</g>
			<g>
				<g>
					<path class="st15" d="M1009.59,1100.17c-6.7-2.65-13.62-4.49-20.75-5.51c-0.57-0.08-0.7,0.8-0.13,0.88
						c7.05,1.02,13.9,2.84,20.53,5.45C1009.77,1101.2,1010.12,1100.38,1009.59,1100.17L1009.59,1100.17z"/>
				</g>
			</g>
			<g>
				<g>
					<path class="st15" d="M1010.29,1091.14c-6.26-2.32-12.76-3.6-19.43-3.83c-0.56-0.02-0.7,0.86-0.13,0.88
						c6.6,0.22,13.02,1.47,19.21,3.77C1010.47,1092.16,1010.83,1091.34,1010.29,1091.14L1010.29,1091.14z"/>
				</g>
			</g>
		</g>
	</g>
	<g>
		<g>
			<g>
				<path class="st12" d="M383.07,1535.86c-0.22,0-0.44-0.02-0.65-0.1c-1.14-0.36-1.77-1.58-1.41-2.71l136.49-428.96
					c0.36-1.13,1.59-1.79,2.71-1.41c1.14,0.36,1.77,1.58,1.41,2.71l-136.49,428.96C384.84,1535.28,383.99,1535.86,383.07,1535.86z"
					/>
			</g>
			<g>
				<path class="st12" d="M578.18,1535.86c-0.22,0-0.44-0.02-0.65-0.1c-1.14-0.36-1.77-1.58-1.41-2.71l136.49-428.96
					c0.36-1.13,1.57-1.79,2.71-1.41c1.14,0.36,1.77,1.58,1.41,2.71l-136.49,428.96C579.95,1535.28,579.1,1535.86,578.18,1535.86z"/>
			</g>
		</g>
		<g>
			<path class="st35" d="M727.63,770.77c-14.14,3.71-25.82,1.29-34.85-3.25c-13.68-6.87-21.29-18.61-22.18-21.35
				c-1.05-3.27,7.39-73.31,12.32-113.15c0.04-0.33,0.07-0.65,0.12-0.98c1.92-15.46,3.27-26.12,3.27-26.12s0.01,0,0.01,0.01
				c0.01,0,0.03,0,0.06,0.02c0.09,0.03,0.16,0.07,0.24,0.12c0.13,0.04,0.31,0.13,0.53,0.24h0.01c4.48,2.12,25.39,12.99,32.67,34.37
				c7.02,20.63,16.96,58.92,19.18,56.81c2.23-2.12,11.51-4.85,11.51-4.85s19.35,8.1,19.88,15.99
				C770.95,716.53,772.86,758.91,727.63,770.77z"/>
			<g>
				<g>
					<path class="st36" d="M645.83,1124.96c-0.09,3.98-0.21,7.85-0.19,11.45c0.01,2.14,1.53,4,3.64,4.41
						c5.33,1.06,10.88,0.98,16.35,0.89c17.74-0.3,35.49-0.61,53.24-0.92c1.83-0.03,3.87-0.14,4.88-1.97
						c0.64-1.16,0.55-2.57-0.06-3.75c-1.24-2.37-3.73-3.37-6.1-4.25c-11.52-4.28-24.03-8.57-32.67-16.84
						c-0.27-0.26-0.54-0.53-0.81-0.8c-1.82-1.85-3.46-3.89-4.85-6.17c-1.08-1.76-1.99-3.66-2.52-5.65c-0.18-0.69-0.32-1.38-0.4-2.09
						c-0.04-0.27-0.06-0.55-0.08-0.82l-6.27-0.28l-1.8-0.08l-24.22-1.07c1.65,6.13,2.01,13.33,1.99,20.55
						C645.94,1120.05,645.89,1122.52,645.83,1124.96z"/>
				</g>
			</g>
			<g>
				<g>
					<path class="st36" d="M510.07,1092.88c-1.92,3.48-3.82,6.86-5.47,10.06c-0.98,1.91-0.49,4.25,1.18,5.6
						c4.23,3.41,9.2,5.9,14.09,8.35c15.87,7.94,31.75,15.87,47.63,23.81c1.63,0.82,3.5,1.66,5.23,0.51c1.1-0.73,1.68-2.03,1.68-3.35
						c0-2.68-1.75-4.71-3.45-6.59c-8.24-9.12-17.34-18.71-21.18-30.04c-0.12-0.36-0.24-0.72-0.35-1.08
						c-0.76-2.48-1.27-5.05-1.45-7.72c-0.14-2.06-0.08-4.16,0.38-6.17c0.15-0.69,0.35-1.37,0.61-2.04c0.09-0.26,0.2-0.51,0.31-0.77
						l-5.43-3.14l-1.56-0.91l-20.98-12.15c-1.37,6.2-4.38,12.74-7.74,19.14C512.43,1088.58,511.25,1090.74,510.07,1092.88z"/>
				</g>
			</g>
			<g>
				<path class="st9" d="M704.9,867.49c-3.4-27.26-8.89-62.11-13.1-84.74c-1.91-10.32-3.57-18.1-4.63-21.47
					c-0.33-1.05-0.6-1.67-0.81-1.8c-1.18-0.75-14.47-0.68-31.58-0.26c-2.11,0.05-4.28,0.11-6.49,0.17
					c-2.88,0.08-5.83,0.17-8.82,0.26c-23.35,0.74-49.03,1.83-60.76,2.34c-4.1,0.18-6.5,0.29-6.5,0.29c-2.58,7.01-4.94,14-7.1,20.95
					c-8.69,27.93-12.31,42.36-13.55,66.13c-1.37,26.31-0.54,83.88-2.12,100.33c-3.47,36.1-36.98,114.42-36.98,114.42
					s1.81,13.52,17.82,23.76c19.17,12.26,28.21,4.95,28.21,4.95s46.03-90.58,53.36-116.32c5.59-19.63,22.21-100.83,22.21-100.83
					s12.88,83.96,13.59,113.44c0.73,30.07-9.04,106.79-9.04,106.79s-1.88,15.35,25.42,15.96c17.44,0.39,24.87-2.6,24.87-2.6
					s19.05-105.57,21.73-145.61C712.8,931.45,708.74,893.73,704.9,867.49z"/>
			</g>
			<g>
				<path class="st35" d="M713.78,657.36c-14.15,50.59-19.21,89.88-21,110.16c-0.88,9.86-0.98,15.24-0.98,15.24
					c-15.52,11.61-99.52,11.33-112.84-14.63c0,0-2.76-62.37-3.98-97.65c0-0.19-0.01-0.39-0.01-0.58c-0.1-2.82-0.19-5.46-0.27-7.87
					c0-0.16,0-0.33-0.01-0.49c-0.16-5.7-0.27-10.08-0.27-12.52c0-1.2,0.06-2.39,0.19-3.58c0.01-0.18,0.04-0.36,0.06-0.53
					c3.27-25.96,37.15-46.37,78.48-46.37c12.8,0,23.97,2.78,33.16,7.36c0,0,0,0,0,0.01c0.03,0,0.06,0.01,0.07,0.03
					c0.09,0.03,0.16,0.07,0.24,0.12c0.19,0.09,0.37,0.18,0.56,0.28C708.64,617.49,719.01,638.66,713.78,657.36z"/>
			</g>
			<g>
				<path class="st35" d="M671.05,711.01c5.03,13.59,0.4,29.38-8.79,40.58c-9.19,11.2-22.3,18.48-35.66,24.09
					c-16.55,6.95-39.5,14.8-57.29,12.49c-17.8-2.31-30.36-15.94-37.01-32.61c-3.84-9.63-3.85-20.36-2.73-30.67
					c2.05-19,7.71-37.48,15.21-55.06c7.68-17.99,17.54-35.44,31.85-48.76c14.32-13.33,48.62-27.78,76.51-22.53l-11.19,49.07
					c0.41,10.4,1.6,21.07,6.42,30.3C654.58,689.82,666.39,698.42,671.05,711.01z"/>
			</g>
			<g>
				<g>
					<path class="st13" d="M563.23,669.61c-5.76,5.25-12.64,11.71-21.11,9.63c-0.36-0.09-0.21-0.65,0.15-0.56
						c10.32,2.53,17.54-7.52,24.72-13.02c0.46-0.35,0.97-0.71,1.51-1.07c0.09,0.15,0.16,0.31,0.25,0.45
						C566.78,666.42,564.95,668.05,563.23,669.61z"/>
					<path class="st13" d="M581.41,671.14c2.04-0.14,3.92-0.81,4.75-2.91c0.78-1.96-0.76-4.42-2.34-5.44
						c-2.4-1.55-5.51-1.6-8.21-0.98c-2.26,0.51-4.35,1.56-6.29,2.86c-0.09-0.14-0.17-0.29-0.25-0.44
						c5.06-3.16,12.88-5.85,16.84-0.25c1.25,1.76,1.39,4.4-0.09,6.07c-1.88,2.11-5.53,1.92-8.03,1.38
						c-3.86-0.85-7.06-3.22-9.02-6.38c0.18-0.13,0.37-0.25,0.55-0.38C571.73,668.71,576.14,671.51,581.41,671.14z"/>
					<path class="st13" d="M569.31,664.66c-0.19,0.12-0.37,0.25-0.55,0.38c-0.09-0.15-0.17-0.3-0.25-0.45
						c0.18-0.12,0.37-0.24,0.56-0.36C569.15,664.37,569.23,664.52,569.31,664.66z"/>
					<path class="st13" d="M685.63,629.84c-0.83,1.13-1.72,2.2-2.7,3.18c-9.22,9.37-24.68,12.38-37.14,12.81
						c-8.82,0.31-17.46-0.98-25.9-3.45c-4.44-1.29-8.85-2.72-13.45-3.3c-5.14-0.64-10.32-0.1-15.37,0.98
						c-5.12,1.08-11.55,2.38-16.45,5.38c-2.7,1.66-4.94,3.85-6.22,6.8c-1.74,4.04-1.28,8.43,0.67,11.98
						c-0.18,0.12-0.37,0.24-0.55,0.36c-1.35-2.36-2.03-5.12-1.8-8.02c0.45-5.45,3.7-9.15,7.96-11.66c1.8-1.08,3.79-1.93,5.81-2.61
						c8.57-2.85,18.01-5.02,27.05-3.65c4.93,0.76,9.64,2.41,14.42,3.73c4.99,1.4,10.1,2.32,15.26,2.72
						c9.98,0.74,20.21-0.37,29.71-3.55c5.81-1.93,11.82-4.99,16.11-9.5c2.35-2.44,4.17-5.3,5.23-8.64
						c1.83-5.84,0.98-12.22-1.95-17.46c0-0.01-0.01-0.01-0.01-0.01c0.03,0,0.06,0.01,0.07,0.03c0.09,0.03,0.16,0.07,0.24,0.12
						c0.13,0.04,0.31,0.13,0.53,0.24h0.01c0,0.01,0.01,0.03,0.01,0.04C690.91,613.67,690.69,622.88,685.63,629.84z"/>
				</g>
			</g>
			<g>
				<g>
					<path class="st15" d="M661.34,703.83c-0.4,0.18-0.75-0.41-0.35-0.6c1.53-0.7,3.11-1.26,4.75-1.67
						c0.43-0.11,0.62,0.56,0.18,0.67C664.35,702.63,662.82,703.15,661.34,703.83z"/>
				</g>
			</g>
			<g>
				<path class="st17" d="M705.48,574.56c0,0-4.66,12.48-32.45,18.36c-27.79,5.88-27.71-25.71-27.71-25.71l-9.12-67.08
					c0,0,23.26-7.35,44.25,7.5C713.91,531.3,685.8,566.06,705.48,574.56z"/>
			</g>
			<g>
				<path class="st14" d="M632.99,596.74c4.79-25.08,4.79-38.23,4.79-38.29l9.01,3.76l1.85,0.77l16.11,6.73c0,0,0.02,1.09,0.09,2.86
					c0.1,2.57,0.29,6.56,0.64,10.66c0.45,5.27,1.16,10.71,2.24,13.51c1.59,4.07,11.02,14.27-8.49,15.5
					C638.88,613.53,631.77,603.12,632.99,596.74z"/>
			</g>
			<g>
				<path class="st15" d="M647.57,563.74c0,0,0.72,0.57,1.88,1.48c3.8,2.97,12.36,9.56,16.21,11.54c0.1,3.09,0.29,7.9,0.64,12.84
					c-4.33-2.12-17.93-9.97-18.71-25.3C647.59,564.11,647.58,563.93,647.57,563.74z"/>
			</g>
			<g>
				<path class="st14" d="M631.43,559.61c-26.05-51.34,24.64-49.78,39.82-37.78s31.37,52.13,6.32,58.26
					C652.53,586.22,631.43,559.61,631.43,559.61z"/>
			</g>
			<g>
				<g>
					<path class="st15" d="M661.73,580.54c-8.22-2.14-15.66-6.25-21.86-12.06c-0.33-0.3,0.16-0.79,0.49-0.49
						c6.12,5.73,13.44,9.76,21.55,11.88C662.34,579.99,662.16,580.66,661.73,580.54z"/>
				</g>
			</g>
			<g>
				<g>
					<path class="st37" d="M667.86,558.31c-0.39-0.22-0.04-0.82,0.35-0.6c4.11,2.38,9.07,2.69,12.69-0.76
						c0.32-0.31,0.81,0.18,0.49,0.49C677.55,561.1,672.26,560.85,667.86,558.31z"/>
				</g>
			</g>
			<g>
				<g>
					<path class="st37" d="M675.09,548.63c1.5,2.19,0.77,2.43-1.13,3.86c-0.36,0.27-0.7-0.33-0.35-0.6
						c0.51-0.38,1.53-1.41,1.49-2.06c-0.04-0.6-1.28-1.71-1.7-2.21c-0.82-0.99-1.7-1.92-2.52-2.91c-1.22-1.47-2.58-3.08-2.99-4.99
						c-0.59-2.73,1.35-4.9,3.99-5.18c0.44-0.05,0.44,0.64,0,0.69c-5.37,0.58-3.04,5.76-1.08,8.27
						C672.17,545.25,673.83,546.8,675.09,548.63z"/>
				</g>
			</g>
			<g>
				<path class="st15" d="M654.32,541.51c-0.7-0.99-0.12-3.11,1.59-4.32c1.71-1.21,3.9-1.04,4.6-0.05c0.7,0.99-0.54,2.18-2.25,3.39
					C656.55,541.73,655.01,542.5,654.32,541.51z"/>
			</g>
			<g>
				<path class="st37" d="M667.56,533.19c-0.53-1.09,0.38-3.09,2.26-4.01c1.88-0.92,4.02-0.4,4.55,0.69
					c0.53,1.09-0.88,2.07-2.76,2.98C669.73,533.77,668.09,534.28,667.56,533.19z"/>
			</g>
			<g>
				<path class="st17" d="M661.28,547.73c-0.67-1.25-0.51-2.64,0.36-3.11c0.87-0.47,2.12,0.16,2.79,1.4
					c0.67,1.25,0.51,2.64-0.36,3.11C663.2,549.61,661.95,548.98,661.28,547.73z"/>
			</g>
			<g>
				<path class="st17" d="M674.25,540.59c-0.67-1.25-0.51-2.64,0.36-3.11c0.87-0.47,2.12,0.16,2.79,1.4
					c0.67,1.25,0.51,2.64-0.36,3.11C676.17,542.46,674.92,541.83,674.25,540.59z"/>
			</g>
			<g>
				<g>
					<path class="st13" d="M666.05,496.9c0.14-0.13,0.27-0.27,0.41-0.4c0.18-0.17,0.44,0.1,0.27,0.27c-0.14,0.13-0.27,0.27-0.41,0.4
						C666.15,497.34,665.88,497.07,666.05,496.9z"/>
				</g>
			</g>
			<g class="st38">
				<path class="st13" d="M661.23,557.85c-4.81-0.34-8.44-4.52-8.1-9.33c0.34-4.81,4.52-8.44,9.33-8.1c4.81,0.34,8.44,4.52,8.1,9.33
					S666.04,558.19,661.23,557.85z"/>
			</g>
			<g class="st38">
				<path class="st13" d="M680.4,548.13c-4.81-0.34-8.44-4.52-8.1-9.33c0.34-4.81,4.52-8.44,9.33-8.1c4.81,0.34,8.44,4.52,8.1,9.33
					C689.39,544.84,685.21,548.47,680.4,548.13z"/>
			</g>
			<g>
				<g>
					<path class="st13" d="M667.53,544.47c-0.23,0.43-0.89,0.05-0.66-0.38c1.22-2.24,3.6-3.73,6.19-3.29
						c0.48,0.08,0.28,0.81-0.2,0.73C670.61,541.15,668.58,542.55,667.53,544.47z"/>
				</g>
			</g>
			<g>
				<g>
					<path class="st13" d="M655.88,556.38c-0.38-0.31,0.16-0.84,0.54-0.54c1.78,1.45,4.02,1.96,6.25,1.45
						c0.48-0.11,0.68,0.62,0.2,0.73C660.36,558.6,657.88,558.01,655.88,556.38z"/>
				</g>
			</g>
			<g>
				<g>
					<path class="st13" d="M676.04,547.63c-0.45-0.17-0.26-0.91,0.2-0.73c4.24,1.62,8.94,1.37,11.98-2.34
						c0.31-0.38,0.85,0.16,0.54,0.54C685.57,549,680.52,549.34,676.04,547.63z"/>
				</g>
			</g>
			<g>
				<path class="st17" d="M625.5,565.29c-15.88-3.42-6.14-34.67-5.81-35.07c0.32-0.4,6.81-11.29,6.81-11.29l17.76-4.26l1.08,18.08
					c0,0-6.77,6.34,1.13,21.44C646.47,554.19,641.38,568.71,625.5,565.29z"/>
			</g>
			<g>
				<g>
					<path class="st13" d="M635.06,549.45c-0.46,0.16-0.66-0.57-0.2-0.73c6.05-2.14,12.37-1.39,18.6-0.53
						c0.48,0.07,0.28,0.8-0.2,0.73C647.16,548.07,640.98,547.35,635.06,549.45z"/>
				</g>
			</g>
			<g>
				<path class="st17" d="M621.71,613.8c-21.55-0.25-28.27-8.01-28.27-8.01s-16.18-71.45,22.25-96.59
					c36.04-23.57,49.71,2.96,49.71,2.96s5.84,27.59-16.92,36.51c-26.08,10.22,6.23,53.69,6.23,53.69S642.8,614.05,621.71,613.8z"/>
			</g>
			<g>
				<g>
					<path class="st13" d="M658.81,512.2c3.68,6.79,1.93,14.94-2.61,20.87c-5.08,6.65-12.78,10.58-20.12,14.22
						c-8.13,4.03-16.73,7.94-22.91,14.82c-6.43,7.16-9.51,17.14-8.29,26.67c1.32,10.22,7.54,19.32,16.34,24.58
						c0.21,0.13,0.02,0.45-0.19,0.33c-14.11-8.45-20.4-25.89-14.52-41.33c6.62-17.41,24.91-21.77,39.25-30.74
						c9.56-5.98,19.05-17.55,12.71-29.24C658.36,512.17,658.69,511.98,658.81,512.2z"/>
				</g>
			</g>
			<g>
				<g>
					<path class="st17" d="M662.43,594.86c0.24,0.05,0.14,0.42-0.1,0.37c-8.13-1.87-14.63-8.2-19.02-15.04
						c-4.51-7.03-7.48-15.7-6.02-24.1c0.04-0.24,0.41-0.14,0.37,0.1c-1.45,8.3,1.53,16.88,5.98,23.81
						C647.97,586.75,654.39,593.01,662.43,594.86z"/>
				</g>
			</g>
			<g>
				<g>
					<g>
						<path class="st14" d="M636.94,563.32c-4.78-2.19-7.25-7.04-5.51-10.84c1.74-3.8,7.02-5.1,11.8-2.91
							c4.78,2.19,7.25,7.04,5.51,10.84C647,564.2,641.72,565.51,636.94,563.32z"/>
					</g>
					<g>
						<g>
							<path class="st37" d="M635.36,563.06c-2.51-1.31-3.81-3.74-4.64-6.34c-0.14-0.42,0.53-0.61,0.67-0.18
								c0.78,2.43,1.96,4.71,4.32,5.93c2.97,1.53,6.79,1.9,10,1.16c0.43-0.1,0.62,0.57,0.18,0.67
								C642.51,565.06,638.47,564.68,635.36,563.06z"/>
						</g>
					</g>
				</g>
				<g>
					<g>
						<path class="st37" d="M641.37,554.78c-0.37-0.25-0.02-0.85,0.35-0.6c0.64,0.43,1.62,1.12,1.74,1.95
							c0.06,0.41-0.16,0.75-0.31,1.11c-0.36,0.88-0.32,1.69,0.2,2.51c0.24,0.38-0.36,0.73-0.6,0.35c-0.4-0.64-0.61-1.33-0.54-2.09
							c0.04-0.37,0.23-0.68,0.29-1.03C642.7,555.85,642.22,555.35,641.37,554.78z"/>
					</g>
				</g>
				<g>
					<g>
						<path class="st37" d="M644.1,550.6c-0.66-0.55-1.41-0.93-2.24-1.14c-0.43-0.11-0.25-0.78,0.18-0.67
							c0.95,0.24,1.8,0.69,2.55,1.32C644.93,550.4,644.44,550.88,644.1,550.6z"/>
					</g>
				</g>
			</g>
			<g>
				
					<ellipse transform="matrix(0.7071 -0.7071 0.7071 0.7071 -127.6744 858.982)" class="st39" cx="973.05" cy="583.61" rx="153.16" ry="153.16"/>
				<g>
					<path class="st12" d="M973.03,744.65c-21.26,0-42.5-4.27-62.68-12.8c-39.6-16.75-70.3-47.91-86.46-87.75
						c-33.36-82.24,6.42-176.29,88.66-209.65c39.84-16.16,83.59-15.84,123.19,0.91c39.6,16.75,70.3,47.91,86.46,87.75
						s15.84,83.59-0.91,123.19c-16.74,39.6-47.91,70.3-87.75,86.46C1013.99,740.69,993.5,744.65,973.03,744.65z M973.06,438.16
						c-18.49,0-36.99,3.58-54.65,10.74c-74.28,30.13-110.2,115.06-80.07,189.34c14.59,35.98,42.32,64.12,78.09,79.25
						c35.76,15.12,75.27,15.42,111.25,0.82c35.98-14.59,64.13-42.32,79.25-78.09c15.12-35.76,15.42-75.27,0.82-111.26
						c-14.59-35.98-42.32-64.12-78.09-79.25C1011.45,442.02,992.26,438.16,973.06,438.16z"/>
				</g>
				<g>
					<path class="st12" d="M515.86,781.42c-4.89,0-9.53-2.92-11.48-7.73c-2.57-6.34,0.48-13.56,6.82-16.13l309.5-125.53
						c6.34-2.58,13.56,0.49,16.13,6.82c2.57,6.34-0.48,13.56-6.82,16.13L520.5,780.51C518.98,781.13,517.4,781.42,515.86,781.42z"/>
				</g>
			</g>
			<g>
				<path class="st13" d="M633.12,880.43c6.12-17.27,14.38-33.3,24.86-48.31c0.27-0.39-0.37-0.76-0.64-0.37
					c-10.51,15.04-18.82,31.2-24.94,48.49C632.24,880.69,632.96,880.88,633.12,880.43L633.12,880.43z"/>
			</g>
			<g>
				<path class="st13" d="M739.1,696.3c-18.37,10.28-30.3,28.14-32.82,49.03c-0.06,0.47,0.69,0.47,0.74,0
					c2.49-20.61,14.35-38.25,32.45-48.39C739.89,696.71,739.51,696.07,739.1,696.3L739.1,696.3z"/>
			</g>
			<g>
				<path class="st13" d="M697.22,717.16c-3.17,7.41-2.31,14.77-2.43,22.74c-0.23,14.58-1.86,29.01-4.47,43.35
					c-0.09,0.47,0.63,0.67,0.72,0.2c1.7-9.34,3.05-18.66,3.78-28.13c0.9-11.63-1.58-26.96,3.05-37.78
					C698.05,717.1,697.41,716.72,697.22,717.16L697.22,717.16z"/>
			</g>
			<g>
				<path class="st13" d="M613.27,696.06c-23.2-0.62-43.45,4.98-61.79,19.5c-0.37,0.3,0.15,0.82,0.52,0.53
					c18.25-14.43,38.2-19.9,61.27-19.28C613.75,696.82,613.75,696.07,613.27,696.06L613.27,696.06z"/>
			</g>
			<g>
				<path class="st13" d="M574.78,702.8c0.43-2.77,0.58-5.82,1.64-8.44c0.18-0.44-0.54-0.63-0.72-0.2
					c-1.07,2.62-1.21,5.67-1.64,8.44C573.99,703.07,574.71,703.27,574.78,702.8L574.78,702.8z"/>
			</g>
			<g>
				<path class="st13" d="M615.08,742.89c-0.75,14.31-5.41,27.4-13.86,38.97c-0.28,0.39,0.36,0.76,0.64,0.37
					c8.51-11.66,13.21-24.93,13.96-39.35C615.85,742.41,615.11,742.41,615.08,742.89L615.08,742.89z"/>
			</g>
			<g>
				<g>
					<path class="st14" d="M639.91,708.8c-8.69-0.59-11.14-2.44-11-4.51c0.14-2.07,2.82-3.57,11.51-2.98
						c8.69,0.59,21.93,1.83,21.7,5.24C661.92,709.47,648.6,709.39,639.91,708.8z"/>
				</g>
				<g>
					<path class="st14" d="M635.44,716.38c-9.47-0.64-12.16-2.51-12.02-4.58c0.14-2.07,3.05-3.56,12.52-2.91
						c9.47,0.64,23.91,1.96,23.68,5.37C659.43,717.18,644.91,717.02,635.44,716.38z"/>
				</g>
				<g>
					<path class="st14" d="M629.43,722.2c-8.81-1.16-11.22-2.92-10.99-4.68c0.23-1.75,3.02-2.83,11.83-1.67
						c8.81,1.16,22.22,3.22,21.84,6.11C651.77,724.44,638.23,723.36,629.43,722.2z"/>
				</g>
				<g>
					<path class="st14" d="M613.17,724.23c-5.07-1.09,4.02-4.41,4.28-5.6c0.26-1.19,3.28,1.54,8.35,2.63
						c5.07,1.09,12.76,2.95,12.34,4.92C637.78,727.87,618.24,725.32,613.17,724.23z"/>
				</g>
				<g>
					<path class="st14" d="M615.48,698.49c-0.05-2.07,2.71-3.83,12.22-4.07c9.51-0.25,24.04-0.29,24.13,3.12
						c0.08,2.93-14.43,4.13-23.94,4.38C618.39,702.17,615.53,700.57,615.48,698.49z"/>
				</g>
				<g>
					<path class="st14" d="M631.1,724.44l-16.28-0.06c-6.88-0.36-12.19-6.66-11.81-14l0.16-3.01c0.3-5.67,9.12-11.69,17.8-12.38
						l16.16,3.82c2.82,0.15,5,2.73,4.84,5.74l-5.06,12.92C636.76,720.48,633.92,724.59,631.1,724.44z"/>
				</g>
			</g>
			<path class="st12" d="M763.25,725.97c-0.46,0.13-0.94,0.24-1.4,0.3c-7.01,0.98-14.57-5.49-17.39-15.22
				c-0.16-0.58-0.31-1.16-0.45-1.74c-1.99-9.04,2.16-14.73,8.11-17.53c0.48-0.24-0.29-3.26,0.23-3.41
				c7.36-2.14,15.77,4.56,18.78,14.94c0.61,2.09,0.95,4.2,1.04,6.22C772.58,717.48,769.14,724.28,763.25,725.97z"/>
			<g>
				<g>
					<path class="st14" d="M801.51,685.85c-2.3,3.71-5.55,6.74-9.07,9.34c-5.85,4.34-13.08,6.47-20.24,14.34
						c-3.52,3.88-7.02,9.13-10.33,16.73c-7.01,0.98-14.57-5.49-17.39-15.22c-0.16-0.58-0.31-1.16-0.45-1.74
						c2.18-3.86,5.43-8.46,5.39-10.35c-0.07-3,0.01-7.17,1.46-10.01c0.51-0.99,1.17-1.83,2.05-2.39c6.88-4.4,15.49-5.97,23.48-4.28
						l11.3-8.11c3.85-2.29,8.24-3.64,12.71-3.88c1.17-0.06,2.48,0,3.28,0.86c0.55,0.58,0.74,1.41,0.85,2.2
						C805.1,677.7,803.81,682.14,801.51,685.85z"/>
				</g>
				<g>
					<path class="st14" d="M795.69,689.47c-2.01-1.12-2.57-3.96,1.08-10.49c3.64-6.53,9.53-16.31,12.85-14.46
						c2.85,1.59-1.92,12-5.56,18.53C800.41,689.57,797.71,690.59,795.69,689.47z"/>
				</g>
				<g>
					<path class="st14" d="M794.86,676.37c-0.23-7.47-0.21-18.89,3.58-19.01c3.26-0.1,4.53,11.28,4.76,18.75
						c0.23,7.47-1.57,9.74-3.87,9.81C797.02,685.99,795.09,683.84,794.86,676.37z"/>
				</g>
				<g>
					<path class="st14" d="M785.67,680.56c-0.34-7.47-0.48-18.89,3.31-19.06c3.26-0.15,4.68,11.22,5.02,18.68
						c0.34,7.47-1.43,9.76-3.73,9.86C787.98,690.15,786.01,688.03,785.67,680.56z"/>
				</g>
				<g>
					<path class="st14" d="M774.86,692.52c-1.88-0.57-2.86-2.83-1.01-8.93c1.85-6.1,4.97-15.32,8.07-14.39
						c2.66,0.81,0.58,10.35-1.26,16.45C778.81,691.75,776.74,693.09,774.86,692.52z"/>
				</g>
				<g>
					<g>
						<path class="st15" d="M772.72,690.59c-0.2-3.18,0.26-6.23,1.43-9.19c0.13-0.34,0.66-0.14,0.52,0.2
							c-1.13,2.87-1.6,5.82-1.4,8.9C773.3,690.86,772.74,690.95,772.72,690.59z"/>
					</g>
				</g>
				<g>
					<g>
						<path class="st15" d="M769.5,690.66c-0.16,0.32-0.68,0.13-0.52-0.2c0.78-1.61,2.09-2.85,3.75-3.53
							c0.33-0.14,0.57,0.37,0.24,0.51C771.44,688.06,770.22,689.18,769.5,690.66z"/>
					</g>
				</g>
				<g>
					<g>
						<path class="st15" d="M771.16,687.7c-2.72-2.47-6.44-3.15-9.85-1.75c-0.33,0.14-0.57-0.37-0.24-0.51
							c3.58-1.46,7.55-0.79,10.42,1.81C771.75,687.49,771.43,687.94,771.16,687.7z"/>
					</g>
				</g>
				<g>
					<g>
						<path class="st15" d="M797.16,685.8c2.2-5.49,4.12-11.07,5.78-16.75c0.1-0.35,0.63-0.15,0.52,0.2
							c-1.65,5.68-3.58,11.26-5.78,16.75C797.55,686.34,797.03,686.14,797.16,685.8z"/>
					</g>
				</g>
			</g>
		</g>
		<g>
			<path class="st12" d="M702.89,1143.92H507.78c-1.2,0-2.16-0.96-2.16-2.16c0-1.2,0.97-2.16,2.16-2.16h195.12
				c1.2,0,2.16,0.96,2.16,2.16C705.06,1142.96,704.09,1143.92,702.89,1143.92z"/>
		</g>
		<g>
			<path class="st12" d="M677.44,1223.71H483.8c-1.2,0-2.16-0.96-2.16-2.16s0.97-2.16,2.16-2.16h193.64c1.2,0,2.16,0.96,2.16,2.16
				S678.64,1223.71,677.44,1223.71z"/>
		</g>
		<g>
			<path class="st12" d="M715.11,1518.6c-0.94,0-1.8-0.6-2.08-1.55l-62.38-213.54H457.78c-1.2,0-2.16-0.96-2.16-2.16
				s0.97-2.16,2.16-2.16h194.5c0.96,0,1.81,0.63,2.08,1.55l62.83,215.09c0.33,1.15-0.33,2.34-1.47,2.67
				C715.51,1518.58,715.31,1518.6,715.11,1518.6z"/>
		</g>
		<g>
			<path class="st12" d="M626.75,1383.3H429.64c-1.2,0-2.16-0.96-2.16-2.16s0.97-2.16,2.16-2.16h197.11c1.2,0,2.16,0.96,2.16,2.16
				S627.95,1383.3,626.75,1383.3z"/>
		</g>
		<g>
			<path class="st12" d="M601.02,1463.1h-194.8c-1.2,0-2.16-0.96-2.16-2.16c0-1.2,0.97-2.16,2.16-2.16h194.8
				c1.2,0,2.16,0.96,2.16,2.16C603.19,1462.14,602.22,1463.1,601.02,1463.1z"/>
		</g>
	</g>
</g>
</svg>
